<svg version="1.1" xmlns="http://www.w3.org/2000/svg" xmlns:xlink="http://www.w3.org/1999/xlink" width="1536.37109375" height="1216"><defs/><g><g transform="translate(-158,-278) scale(1,1)"><rect fill="#C0C0C0" stroke="none" x="711" y="295" width="558.986328125" height="460" opacity="0.2"/></g><g transform="translate(-158,-278) scale(1,1)"><rect fill="#ffffff" stroke="none" x="704" y="288" width="558.986328125" height="460"/></g><g transform="translate(-158,-278) scale(1,1)"><path fill="none" stroke="#000000" d="M 704 288 L 1262.986328125 288 L 1262.986328125 748 L 704 748 L 704 288 Z Z" stroke-miterlimit="10"/></g><g transform="translate(-158,-278) scale(1,1)"><path fill="none" stroke="#000000" d="M 704 313 L 1262.986328125 313" stroke-miterlimit="10"/></g><g transform="translate(-158,-278) scale(1,1)"><path fill="none" stroke="#000000" d="M 704 471 L 1262.986328125 471" stroke-miterlimit="10"/></g><g transform="translate(-158,-278) scale(1,1)"><g><path fill="none" stroke="none"/><text fill="#000000" stroke="none" font-family="Arial" font-size="13px" font-style="normal" font-weight="bold" text-decoration="none" x="972.292724609375" y="307.5">Bus</text></g></g><g transform="translate(-158,-278) scale(1,1)"><g><path fill="none" stroke="none"/><text fill="#000000" stroke="none" font-family="Arial" font-size="13px" font-style="normal" font-weight="normal" text-decoration="none" x="709" y="330.5">-int numberOfItem</text></g></g><g transform="translate(-158,-278) scale(1,1)"><g><path fill="none" stroke="none"/><text fill="#000000" stroke="none" font-family="Arial" font-size="13px" font-style="normal" font-weight="normal" text-decoration="none" x="709" y="345.5">-string license</text></g></g><g transform="translate(-158,-278) scale(1,1)"><g><path fill="none" stroke="none"/><text fill="#000000" stroke="none" font-family="Arial" font-size="13px" font-style="normal" font-weight="normal" text-decoration="none" x="709" y="360.5">-string model</text></g></g><g transform="translate(-158,-278) scale(1,1)"><g><path fill="none" stroke="none"/><text fill="#000000" stroke="none" font-family="Arial" font-size="13px" font-style="normal" font-weight="normal" text-decoration="none" x="709" y="375.5">-int carring</text></g></g><g transform="translate(-158,-278) scale(1,1)"><g><path fill="none" stroke="none"/><text fill="#000000" stroke="none" font-family="Arial" font-size="13px" font-style="normal" font-weight="normal" text-decoration="none" x="709" y="390.5">-int running</text></g></g><g transform="translate(-158,-278) scale(1,1)"><g><path fill="none" stroke="none"/><text fill="#000000" stroke="none" font-family="Arial" font-size="13px" font-style="normal" font-weight="normal" text-decoration="none" x="709" y="405.5">-int resttime</text></g></g><g transform="translate(-158,-278) scale(1,1)"><g><path fill="none" stroke="none"/><text fill="#000000" stroke="none" font-family="Arial" font-size="13px" font-style="normal" font-weight="normal" text-decoration="none" x="709" y="420.5">-int times</text></g></g><g transform="translate(-158,-278) scale(1,1)"><g><path fill="none" stroke="none"/><text fill="#000000" stroke="none" font-family="Arial" font-size="13px" font-style="normal" font-weight="normal" text-decoration="none" x="709" y="435.5">-Period period</text></g></g><g transform="translate(-158,-278) scale(1,1)"><g><path fill="none" stroke="none"/><text fill="#000000" stroke="none" font-family="Arial" font-size="13px" font-style="normal" font-weight="normal" text-decoration="none" x="709" y="450.5">-TimeTable timeTable</text></g></g><g transform="translate(-158,-278) scale(1,1)"><g><path fill="none" stroke="none"/><text fill="#000000" stroke="none" font-family="Arial" font-size="13px" font-style="normal" font-weight="normal" text-decoration="none" x="709" y="465.5">-RunningTable protoRunningTable</text></g></g><g transform="translate(-158,-278) scale(1,1)"><g><path fill="none" stroke="none"/><text fill="#000000" stroke="none" font-family="Arial" font-size="13px" font-style="normal" font-weight="normal" text-decoration="none" x="709" y="488.5">«constructor»+Bus()</text></g></g><g transform="translate(-158,-278) scale(1,1)"><g><path fill="none" stroke="none"/><text fill="#000000" stroke="none" font-family="Arial" font-size="13px" font-style="normal" font-weight="normal" text-decoration="none" x="709" y="503.5">«constructor»+Bus(l: string, m: string, d: string, c: int, date: Date, p: Period, r: int, rt: int)</text></g></g><g transform="translate(-158,-278) scale(1,1)"><g><path fill="none" stroke="none"/><text fill="#000000" stroke="none" font-family="Arial" font-size="13px" font-style="normal" font-weight="normal" text-decoration="none" x="709" y="518.5">+Time startTime(): Time startTime</text></g></g><g transform="translate(-158,-278) scale(1,1)"><g><path fill="none" stroke="none"/><text fill="#000000" stroke="none" font-family="Arial" font-size="13px" font-style="normal" font-weight="normal" text-decoration="none" x="709" y="533.5">+Time endTime(): Time endTime</text></g></g><g transform="translate(-158,-278) scale(1,1)"><g><path fill="none" stroke="none"/><text fill="#000000" stroke="none" font-family="Arial" font-size="13px" font-style="normal" font-weight="normal" text-decoration="none" x="709" y="548.5">+TimeTable&amp; getTimeTable(): TimeTable&amp; getTimeTable</text></g></g><g transform="translate(-158,-278) scale(1,1)"><g><path fill="none" stroke="none"/><text fill="#000000" stroke="none" font-family="Arial" font-size="13px" font-style="normal" font-weight="normal" text-decoration="none" x="709" y="563.5">+RunningTable* getRunningTable(): RunningTable* getRunningTable</text></g></g><g transform="translate(-158,-278) scale(1,1)"><g><path fill="none" stroke="none"/><text fill="#000000" stroke="none" font-family="Arial" font-size="13px" font-style="normal" font-weight="normal" text-decoration="none" x="709" y="578.5">+TimeTableItem&amp; getCurrentRunningTableItem(): TimeTableItem&amp; getCurrentRunningTableItem</text></g></g><g transform="translate(-158,-278) scale(1,1)"><g><path fill="none" stroke="none"/><text fill="#000000" stroke="none" font-family="Arial" font-size="13px" font-style="normal" font-weight="normal" text-decoration="none" x="709" y="593.5">+STATE getCurrentState(): STATE getCurrentState</text></g></g><g transform="translate(-158,-278) scale(1,1)"><g><path fill="none" stroke="none"/><text fill="#000000" stroke="none" font-family="Arial" font-size="13px" font-style="normal" font-weight="normal" text-decoration="none" x="709" y="608.5">+bool isRunning(): bool isRunning</text></g></g><g transform="translate(-158,-278) scale(1,1)"><g><path fill="none" stroke="none"/><text fill="#000000" stroke="none" font-family="Arial" font-size="13px" font-style="normal" font-weight="normal" text-decoration="none" x="709" y="623.5">+int getNumOfItem(): int getNumOfItem</text></g></g><g transform="translate(-158,-278) scale(1,1)"><g><path fill="none" stroke="none"/><text fill="#000000" stroke="none" font-family="Arial" font-size="13px" font-style="normal" font-weight="normal" text-decoration="none" x="709" y="638.5">+startADay(): startADay</text></g></g><g transform="translate(-158,-278) scale(1,1)"><g><path fill="none" stroke="none"/><text fill="#000000" stroke="none" font-family="Arial" font-size="13px" font-style="normal" font-weight="normal" text-decoration="none" x="709" y="653.5">+isFull(): isFull</text></g></g><g transform="translate(-158,-278) scale(1,1)"><g><path fill="none" stroke="none"/><text fill="#000000" stroke="none" font-family="Arial" font-size="13px" font-style="normal" font-weight="normal" text-decoration="none" x="709" y="668.5">+addPerson(): addPerson</text></g></g><g transform="translate(-158,-278) scale(1,1)"><g><path fill="none" stroke="none"/><text fill="#000000" stroke="none" font-family="Arial" font-size="13px" font-style="normal" font-weight="normal" text-decoration="none" x="709" y="683.5">+endADay(): endADay</text></g></g><g transform="translate(-158,-278) scale(1,1)"><g><path fill="none" stroke="none"/><text fill="#000000" stroke="none" font-family="Arial" font-size="13px" font-style="normal" font-weight="normal" text-decoration="none" x="709" y="698.5">+tryEnd(now: const Time&amp;): tryEnd</text></g></g><g transform="translate(-158,-278) scale(1,1)"><g><path fill="none" stroke="none"/><text fill="#000000" stroke="none" font-family="Arial" font-size="13px" font-style="normal" font-weight="normal" text-decoration="none" x="709" y="713.5">+ifRun(now: const Time&amp;): ifRun</text></g></g><g transform="translate(-158,-278) scale(1,1)"><g><path fill="none" stroke="none"/><text fill="#000000" stroke="none" font-family="Arial" font-size="13px" font-style="normal" font-weight="normal" text-decoration="none" x="709" y="728.5">+tryRun(now: const Time&amp;): tryRun</text></g></g><g transform="translate(-158,-278) scale(1,1)"><g><path fill="none" stroke="none"/><text fill="#000000" stroke="none" font-family="Arial" font-size="13px" font-style="normal" font-weight="normal" text-decoration="none" x="709" y="743.5">+tryStop(now: const Time&amp;): tryStop</text></g></g><g transform="translate(-158,-278) scale(1,1)"><rect fill="#C0C0C0" stroke="none" x="175" y="895" width="461.16259765625" height="102" opacity="0.2"/></g><g transform="translate(-158,-278) scale(1,1)"><rect fill="#ffffff" stroke="none" x="168" y="888" width="461.16259765625" height="102"/></g><g transform="translate(-158,-278) scale(1,1)"><path fill="none" stroke="#000000" d="M 168 888 L 629.16259765625 888 L 629.16259765625 990 L 168 990 L 168 888 Z Z" stroke-miterlimit="10"/></g><g transform="translate(-158,-278) scale(1,1)"><path fill="none" stroke="#000000" d="M 168 913 L 629.16259765625 913" stroke-miterlimit="10"/></g><g transform="translate(-158,-278) scale(1,1)"><path fill="none" stroke="#000000" d="M 168 923 L 629.16259765625 923" stroke-miterlimit="10"/></g><g transform="translate(-158,-278) scale(1,1)"><g><path fill="none" stroke="none"/><text fill="#000000" stroke="none" font-family="Arial" font-size="13px" font-style="normal" font-weight="bold" text-decoration="none" x="368.83935546875" y="907.5">TimeTable</text></g></g><g transform="translate(-158,-278) scale(1,1)"><g><path fill="none" stroke="none"/><text fill="#000000" stroke="none" font-family="Arial" font-size="13px" font-style="normal" font-weight="normal" text-decoration="none" x="173" y="940.5">«constructor»+TimeTable()</text></g></g><g transform="translate(-158,-278) scale(1,1)"><g><path fill="none" stroke="none"/><text fill="#000000" stroke="none" font-family="Arial" font-size="13px" font-style="normal" font-weight="normal" text-decoration="none" x="173" y="955.5">«constructor»+TimeTable(s: Time, e: Time, d: Date, delta: int, runningTime: int)</text></g></g><g transform="translate(-158,-278) scale(1,1)"><g><path fill="none" stroke="none"/><text fill="#000000" stroke="none" font-family="Arial" font-size="13px" font-style="normal" font-weight="normal" text-decoration="none" x="173" y="970.5">+printTable(): printTable</text></g></g><g transform="translate(-158,-278) scale(1,1)"><g><path fill="none" stroke="none"/><text fill="#000000" stroke="none" font-family="Arial" font-size="13px" font-style="normal" font-weight="normal" text-decoration="none" x="173" y="985.5">+int getHeight(): int getHeight</text></g></g><g transform="translate(-158,-278) scale(1,1)"><rect fill="#C0C0C0" stroke="none" x="823" y="863" width="481.18310546875" height="162" opacity="0.2"/></g><g transform="translate(-158,-278) scale(1,1)"><rect fill="#ffffff" stroke="none" x="816" y="856" width="481.18310546875" height="162"/></g><g transform="translate(-158,-278) scale(1,1)"><path fill="none" stroke="#000000" d="M 816 856 L 1297.18310546875 856 L 1297.18310546875 1018 L 816 1018 L 816 856 Z Z" stroke-miterlimit="10"/></g><g transform="translate(-158,-278) scale(1,1)"><path fill="none" stroke="#000000" d="M 816 881 L 1297.18310546875 881" stroke-miterlimit="10"/></g><g transform="translate(-158,-278) scale(1,1)"><path fill="none" stroke="#000000" d="M 816 891 L 1297.18310546875 891" stroke-miterlimit="10"/></g><g transform="translate(-158,-278) scale(1,1)"><g><path fill="none" stroke="none"/><text fill="#000000" stroke="none" font-family="Arial" font-size="13px" font-style="normal" font-weight="bold" text-decoration="none" x="1016.83935546875" y="875.5">RunningTable</text></g></g><g transform="translate(-158,-278) scale(1,1)"><g><path fill="none" stroke="none"/><text fill="#000000" stroke="none" font-family="Arial" font-size="13px" font-style="normal" font-weight="normal" text-decoration="none" x="821" y="908.5">«constructor»+RunningTable()</text></g></g><g transform="translate(-158,-278) scale(1,1)"><g><path fill="none" stroke="none"/><text fill="#000000" stroke="none" font-family="Arial" font-size="13px" font-style="normal" font-weight="normal" text-decoration="none" x="821" y="923.5">«constructor»+RunningTable(s: Time, e: Time, d: Date, delta: int, runningTime: int)</text></g></g><g transform="translate(-158,-278) scale(1,1)"><g><path fill="none" stroke="none"/><text fill="#000000" stroke="none" font-family="Arial" font-size="13px" font-style="normal" font-weight="normal" text-decoration="none" x="821" y="938.5">+setTimeItem(num: int, start: const Time&amp;, end: const Time&amp;): setTimeItem</text></g></g><g transform="translate(-158,-278) scale(1,1)"><g><path fill="none" stroke="none"/><text fill="#000000" stroke="none" font-family="Arial" font-size="13px" font-style="normal" font-weight="normal" text-decoration="none" x="821" y="953.5">+printCompleteTable(): printCompleteTable</text></g></g><g transform="translate(-158,-278) scale(1,1)"><g><path fill="none" stroke="none"/><text fill="#000000" stroke="none" font-family="Arial" font-size="13px" font-style="normal" font-weight="normal" text-decoration="none" x="821" y="968.5">+getCarryRate(): getCarryRate</text></g></g><g transform="translate(-158,-278) scale(1,1)"><g><path fill="none" stroke="none"/><text fill="#000000" stroke="none" font-family="Arial" font-size="13px" font-style="normal" font-weight="normal" text-decoration="none" x="821" y="983.5">+getTimeRate(): getTimeRate</text></g></g><g transform="translate(-158,-278) scale(1,1)"><g><path fill="none" stroke="none"/><text fill="#000000" stroke="none" font-family="Arial" font-size="13px" font-style="normal" font-weight="normal" text-decoration="none" x="821" y="998.5">+void setDate(date1: Date): void setDate</text></g></g><g transform="translate(-158,-278) scale(1,1)"><g><path fill="none" stroke="none"/><text fill="#000000" stroke="none" font-family="Arial" font-size="13px" font-style="normal" font-weight="normal" text-decoration="none" x="821" y="1013.5">+TimeTableItem&amp; getItem(i: int): TimeTableItem&amp; getItem</text></g></g><g transform="translate(-158,-278) scale(1,1)"><rect fill="#C0C0C0" stroke="none" x="1079" y="1255" width="331.080078125" height="220" opacity="0.2"/></g><g transform="translate(-158,-278) scale(1,1)"><rect fill="#ffffff" stroke="none" x="1072" y="1248" width="331.080078125" height="220"/></g><g transform="translate(-158,-278) scale(1,1)"><path fill="none" stroke="#000000" d="M 1072 1248 L 1403.080078125 1248 L 1403.080078125 1468 L 1072 1468 L 1072 1248 Z Z" stroke-miterlimit="10"/></g><g transform="translate(-158,-278) scale(1,1)"><path fill="none" stroke="#000000" d="M 1072 1273 L 1403.080078125 1273" stroke-miterlimit="10"/></g><g transform="translate(-158,-278) scale(1,1)"><path fill="none" stroke="#000000" d="M 1072 1296 L 1403.080078125 1296" stroke-miterlimit="10"/></g><g transform="translate(-158,-278) scale(1,1)"><g><path fill="none" stroke="none"/><text fill="#000000" stroke="none" font-family="Arial" font-size="13px" font-style="normal" font-weight="bold" text-decoration="none" x="1195.15673828125" y="1267.5">TimeTableItem</text></g></g><g transform="translate(-158,-278) scale(1,1)"><g><path fill="none" stroke="none"/><text fill="#000000" stroke="none" font-family="Arial" font-size="13px" font-style="normal" font-weight="normal" text-decoration="none" x="1077" y="1290.5">-int actualCarring</text></g></g><g transform="translate(-158,-278) scale(1,1)"><g><path fill="none" stroke="none"/><text fill="#000000" stroke="none" font-family="Arial" font-size="13px" font-style="normal" font-weight="normal" text-decoration="none" x="1077" y="1313.5">«constructor»+TimeTableItem(s: Time, e: Time, d: int)</text></g></g><g transform="translate(-158,-278) scale(1,1)"><g><path fill="none" stroke="none"/><text fill="#000000" stroke="none" font-family="Arial" font-size="13px" font-style="normal" font-weight="normal" text-decoration="none" x="1077" y="1328.5">«constructor»+TimeTableItem()</text></g></g><g transform="translate(-158,-278) scale(1,1)"><g><path fill="none" stroke="none"/><text fill="#000000" stroke="none" font-family="Arial" font-size="13px" font-style="normal" font-weight="normal" text-decoration="none" x="1077" y="1343.5">+void setStartTime(t: Time): void setStartTime</text></g></g><g transform="translate(-158,-278) scale(1,1)"><g><path fill="none" stroke="none"/><text fill="#000000" stroke="none" font-family="Arial" font-size="13px" font-style="normal" font-weight="normal" text-decoration="none" x="1077" y="1358.5">+void setEndTime(t: Time): void setEndTime</text></g></g><g transform="translate(-158,-278) scale(1,1)"><g><path fill="none" stroke="none"/><text fill="#000000" stroke="none" font-family="Arial" font-size="13px" font-style="normal" font-weight="normal" text-decoration="none" x="1077" y="1373.5">+void setDirection(d: int): void setDirection</text></g></g><g transform="translate(-158,-278) scale(1,1)"><g><path fill="none" stroke="none"/><text fill="#000000" stroke="none" font-family="Arial" font-size="13px" font-style="normal" font-weight="normal" text-decoration="none" x="1077" y="1388.5">+void setCarring(num: int): void setCarring</text></g></g><g transform="translate(-158,-278) scale(1,1)"><g><path fill="none" stroke="none"/><text fill="#000000" stroke="none" font-family="Arial" font-size="13px" font-style="normal" font-weight="normal" text-decoration="none" x="1077" y="1403.5">+void addCarring(): void addCarring</text></g></g><g transform="translate(-158,-278) scale(1,1)"><g><path fill="none" stroke="none"/><text fill="#000000" stroke="none" font-family="Arial" font-size="13px" font-style="normal" font-weight="normal" text-decoration="none" x="1077" y="1418.5">+const Time&amp; getStartTime(): const Time&amp; getStartTime</text></g></g><g transform="translate(-158,-278) scale(1,1)"><g><path fill="none" stroke="none"/><text fill="#000000" stroke="none" font-family="Arial" font-size="13px" font-style="normal" font-weight="normal" text-decoration="none" x="1077" y="1433.5">+const Time&amp; getEndTime(): const Time&amp; getEndTime</text></g></g><g transform="translate(-158,-278) scale(1,1)"><g><path fill="none" stroke="none"/><text fill="#000000" stroke="none" font-family="Arial" font-size="13px" font-style="normal" font-weight="normal" text-decoration="none" x="1077" y="1448.5">+int getDirection(): int getDirection</text></g></g><g transform="translate(-158,-278) scale(1,1)"><g><path fill="none" stroke="none"/><text fill="#000000" stroke="none" font-family="Arial" font-size="13px" font-style="normal" font-weight="normal" text-decoration="none" x="1077" y="1463.5">+int getActualCarring(): int getActualCarring</text></g></g><g transform="translate(-158,-278) scale(1,1)"><rect fill="#C0C0C0" stroke="none" x="215" y="1271" width="233.3388671875" height="220" opacity="0.2"/></g><g transform="translate(-158,-278) scale(1,1)"><rect fill="#ffffff" stroke="none" x="208" y="1264" width="233.3388671875" height="220"/></g><g transform="translate(-158,-278) scale(1,1)"><path fill="none" stroke="#000000" d="M 208 1264 L 441.3388671875 1264 L 441.3388671875 1484 L 208 1484 L 208 1264 Z Z" stroke-miterlimit="10"/></g><g transform="translate(-158,-278) scale(1,1)"><path fill="none" stroke="#000000" d="M 208 1304 L 441.3388671875 1304" stroke-miterlimit="10"/></g><g transform="translate(-158,-278) scale(1,1)"><path fill="none" stroke="#000000" d="M 208 1357 L 441.3388671875 1357" stroke-miterlimit="10"/></g><g transform="translate(-158,-278) scale(1,1)"><g><path fill="none" stroke="none"/><text fill="#000000" stroke="none" font-family="Arial" font-size="13px" font-style="normal" font-weight="bold" text-decoration="none" x="310.939453125" y="1283.5">Date</text></g></g><g transform="translate(-158,-278) scale(1,1)"><g><path fill="none" stroke="none"/><text fill="#000000" stroke="none" font-family="Arial" font-size="13px" font-style="normal" font-weight="normal" text-decoration="none" x="279.534423828125" y="1298.5">(from 时间管理)</text></g></g><g transform="translate(-158,-278) scale(1,1)"><g><path fill="none" stroke="none"/><text fill="#000000" stroke="none" font-family="Arial" font-size="13px" font-style="normal" font-weight="normal" text-decoration="none" x="213" y="1321.5">-int year</text></g></g><g transform="translate(-158,-278) scale(1,1)"><g><path fill="none" stroke="none"/><text fill="#000000" stroke="none" font-family="Arial" font-size="13px" font-style="normal" font-weight="normal" text-decoration="none" x="213" y="1336.5">+int month</text></g></g><g transform="translate(-158,-278) scale(1,1)"><g><path fill="none" stroke="none"/><text fill="#000000" stroke="none" font-family="Arial" font-size="13px" font-style="normal" font-weight="normal" text-decoration="none" x="213" y="1351.5">+int day</text></g></g><g transform="translate(-158,-278) scale(1,1)"><g><path fill="none" stroke="none"/><text fill="#000000" stroke="none" font-family="Arial" font-size="13px" font-style="normal" font-weight="normal" text-decoration="none" x="213" y="1374.5">«constructor»+Date()</text></g></g><g transform="translate(-158,-278) scale(1,1)"><g><path fill="none" stroke="none"/><text fill="#000000" stroke="none" font-family="Arial" font-size="13px" font-style="normal" font-weight="normal" text-decoration="none" x="213" y="1389.5">«constructor»+Date(y: int, m: int, d: int)</text></g></g><g transform="translate(-158,-278) scale(1,1)"><g><path fill="none" stroke="none"/><text fill="#000000" stroke="none" font-family="Arial" font-size="13px" font-style="normal" font-weight="normal" text-decoration="none" x="213" y="1404.5">+void setYear(y: int): void setYear</text></g></g><g transform="translate(-158,-278) scale(1,1)"><g><path fill="none" stroke="none"/><text fill="#000000" stroke="none" font-family="Arial" font-size="13px" font-style="normal" font-weight="normal" text-decoration="none" x="213" y="1419.5">+void setMonth(m: int): void setMonth</text></g></g><g transform="translate(-158,-278) scale(1,1)"><g><path fill="none" stroke="none"/><text fill="#000000" stroke="none" font-family="Arial" font-size="13px" font-style="normal" font-weight="normal" text-decoration="none" x="213" y="1434.5">+void setDay(d: int): void setDay</text></g></g><g transform="translate(-158,-278) scale(1,1)"><g><path fill="none" stroke="none"/><text fill="#000000" stroke="none" font-family="Arial" font-size="13px" font-style="normal" font-weight="normal" text-decoration="none" x="213" y="1449.5">+int getYear(): int getYear</text></g></g><g transform="translate(-158,-278) scale(1,1)"><g><path fill="none" stroke="none"/><text fill="#000000" stroke="none" font-family="Arial" font-size="13px" font-style="normal" font-weight="normal" text-decoration="none" x="213" y="1464.5">+int getMonth(): int getMonth</text></g></g><g transform="translate(-158,-278) scale(1,1)"><g><path fill="none" stroke="none"/><text fill="#000000" stroke="none" font-family="Arial" font-size="13px" font-style="normal" font-weight="normal" text-decoration="none" x="213" y="1479.5">+int getDay(): int getDay</text></g></g><g transform="translate(-158,-278) scale(1,1)"><rect fill="#C0C0C0" stroke="none" x="631" y="1287" width="214.79736328125" height="190" opacity="0.2"/></g><g transform="translate(-158,-278) scale(1,1)"><rect fill="#ffffff" stroke="none" x="624" y="1280" width="214.79736328125" height="190"/></g><g transform="translate(-158,-278) scale(1,1)"><path fill="none" stroke="#000000" d="M 624 1280 L 838.79736328125 1280 L 838.79736328125 1470 L 624 1470 L 624 1280 Z Z" stroke-miterlimit="10"/></g><g transform="translate(-158,-278) scale(1,1)"><path fill="none" stroke="#000000" d="M 624 1320 L 838.79736328125 1320" stroke-miterlimit="10"/></g><g transform="translate(-158,-278) scale(1,1)"><path fill="none" stroke="#000000" d="M 624 1358 L 838.79736328125 1358" stroke-miterlimit="10"/></g><g transform="translate(-158,-278) scale(1,1)"><g><path fill="none" stroke="none"/><text fill="#000000" stroke="none" font-family="Arial" font-size="13px" font-style="normal" font-weight="bold" text-decoration="none" x="717.19580078125" y="1299.5">Time</text></g></g><g transform="translate(-158,-278) scale(1,1)"><g><path fill="none" stroke="none"/><text fill="#000000" stroke="none" font-family="Arial" font-size="13px" font-style="normal" font-weight="normal" text-decoration="none" x="686.263671875" y="1314.5">(from 时间管理)</text></g></g><g transform="translate(-158,-278) scale(1,1)"><g><path fill="none" stroke="none"/><text fill="#000000" stroke="none" font-family="Arial" font-size="13px" font-style="normal" font-weight="normal" text-decoration="none" x="629" y="1337.5">-int hour</text></g></g><g transform="translate(-158,-278) scale(1,1)"><g><path fill="none" stroke="none"/><text fill="#000000" stroke="none" font-family="Arial" font-size="13px" font-style="normal" font-weight="normal" text-decoration="none" x="629" y="1352.5">-int minute</text></g></g><g transform="translate(-158,-278) scale(1,1)"><g><path fill="none" stroke="none"/><text fill="#000000" stroke="none" font-family="Arial" font-size="13px" font-style="normal" font-weight="normal" text-decoration="none" x="629" y="1375.5">«constructor»+Time()</text></g></g><g transform="translate(-158,-278) scale(1,1)"><g><path fill="none" stroke="none"/><text fill="#000000" stroke="none" font-family="Arial" font-size="13px" font-style="normal" font-weight="normal" text-decoration="none" x="629" y="1390.5">«constructor»+Time(h: int, m: int)</text></g></g><g transform="translate(-158,-278) scale(1,1)"><g><path fill="none" stroke="none"/><text fill="#000000" stroke="none" font-family="Arial" font-size="13px" font-style="normal" font-weight="normal" text-decoration="none" x="629" y="1405.5">+int getHour(): int getHour</text></g></g><g transform="translate(-158,-278) scale(1,1)"><g><path fill="none" stroke="none"/><text fill="#000000" stroke="none" font-family="Arial" font-size="13px" font-style="normal" font-weight="normal" text-decoration="none" x="629" y="1420.5">+int getMinute(): int getMinute</text></g></g><g transform="translate(-158,-278) scale(1,1)"><g><path fill="none" stroke="none"/><text fill="#000000" stroke="none" font-family="Arial" font-size="13px" font-style="normal" font-weight="normal" text-decoration="none" x="629" y="1435.5">+operator(m: int): operator</text></g></g><g transform="translate(-158,-278) scale(1,1)"><g><path fill="none" stroke="none"/><text fill="#000000" stroke="none" font-family="Arial" font-size="13px" font-style="normal" font-weight="normal" text-decoration="none" x="629" y="1450.5">+operator(y: const Time&amp;): operator</text></g></g><g transform="translate(-158,-278) scale(1,1)"><g><path fill="none" stroke="none"/><text fill="#000000" stroke="none" font-family="Arial" font-size="13px" font-style="normal" font-weight="normal" text-decoration="none" x="629" y="1465.5">+operator(y: const Time&amp;): operator</text></g></g><g transform="translate(-158,-278) scale(1,1)"><rect fill="#C0C0C0" stroke="none" x="1447" y="1031" width="244.37109375" height="145" opacity="0.2"/></g><g transform="translate(-158,-278) scale(1,1)"><rect fill="#ffffff" stroke="none" x="1440" y="1024" width="244.37109375" height="145"/></g><g transform="translate(-158,-278) scale(1,1)"><path fill="none" stroke="#000000" d="M 1440 1024 L 1684.37109375 1024 L 1684.37109375 1169 L 1440 1169 L 1440 1024 Z Z" stroke-miterlimit="10"/></g><g transform="translate(-158,-278) scale(1,1)"><path fill="none" stroke="#000000" d="M 1440 1064 L 1684.37109375 1064" stroke-miterlimit="10"/></g><g transform="translate(-158,-278) scale(1,1)"><path fill="none" stroke="#000000" d="M 1440 1102 L 1684.37109375 1102" stroke-miterlimit="10"/></g><g transform="translate(-158,-278) scale(1,1)"><g><path fill="none" stroke="none"/><text fill="#000000" stroke="none" font-family="Arial" font-size="13px" font-style="normal" font-weight="bold" text-decoration="none" x="1543.396484375" y="1043.5">Period</text></g></g><g transform="translate(-158,-278) scale(1,1)"><g><path fill="none" stroke="none"/><text fill="#000000" stroke="none" font-family="Arial" font-size="13px" font-style="normal" font-weight="normal" text-decoration="none" x="1517.050537109375" y="1058.5">(from 时间管理)</text></g></g><g transform="translate(-158,-278) scale(1,1)"><g><path fill="none" stroke="none"/><text fill="#000000" stroke="none" font-family="Arial" font-size="13px" font-style="normal" font-weight="normal" text-decoration="none" x="1445" y="1081.5">-Time startTime</text></g></g><g transform="translate(-158,-278) scale(1,1)"><g><path fill="none" stroke="none"/><text fill="#000000" stroke="none" font-family="Arial" font-size="13px" font-style="normal" font-weight="normal" text-decoration="none" x="1445" y="1096.5">+Time endTime</text></g></g><g transform="translate(-158,-278) scale(1,1)"><g><path fill="none" stroke="none"/><text fill="#000000" stroke="none" font-family="Arial" font-size="13px" font-style="normal" font-weight="normal" text-decoration="none" x="1445" y="1119.5">«constructor»+Period()</text></g></g><g transform="translate(-158,-278) scale(1,1)"><g><path fill="none" stroke="none"/><text fill="#000000" stroke="none" font-family="Arial" font-size="13px" font-style="normal" font-weight="normal" text-decoration="none" x="1445" y="1134.5">«constructor»+Period(, )</text></g></g><g transform="translate(-158,-278) scale(1,1)"><g><path fill="none" stroke="none"/><text fill="#000000" stroke="none" font-family="Arial" font-size="13px" font-style="normal" font-weight="normal" text-decoration="none" x="1445" y="1149.5">+Time getStartTime(): Time getStartTime</text></g></g><g transform="translate(-158,-278) scale(1,1)"><g><path fill="none" stroke="none"/><text fill="#000000" stroke="none" font-family="Arial" font-size="13px" font-style="normal" font-weight="normal" text-decoration="none" x="1445" y="1164.5">+Time getEndTime(): Time getEndTime</text></g></g><g transform="translate(-158,-278) scale(1,1)"><path fill="none" stroke="#000000" d="M 1489 1023 L 1214 749" stroke-miterlimit="10"/></g><g transform="translate(-158,-278) scale(1,1)"><path fill="#000000" stroke="none" d="M 1224.1703255956425 753.190999556027 L 1214 749 L 1218.2280219895374 759.1549904015704 L 1229.5846591232976 764.5279876355766"/></g><g transform="translate(-158,-278) scale(1,1)"><path fill="none" stroke="#000000" d="M 1224.1703255956425 753.190999556027 L 1214 749 L 1218.2280219895374 759.1549904015704 L 1229.5846591232976 764.5279876355766 L 1224.1703255956425 753.190999556027" stroke-miterlimit="10"/></g><g transform="translate(-158,-278) scale(1,1)"><path fill="none" stroke="#000000" d="M 442 1303 L 919 1019" stroke-miterlimit="10"/></g><g transform="translate(-158,-278) scale(1,1)"><path fill="#000000" stroke="none" d="M 912.4213608735461 1027.8159802202529 L 919 1019 L 908.114360266158 1020.5820390592526 L 900.0968007778844 1030.2547349666265"/></g><g transform="translate(-158,-278) scale(1,1)"><path fill="none" stroke="#000000" d="M 912.4213608735461 1027.8159802202529 L 919 1019 L 908.114360266158 1020.5820390592526 L 900.0968007778844 1030.2547349666265 L 912.4213608735461 1027.8159802202529" stroke-miterlimit="10"/></g><g transform="translate(-158,-278) scale(1,1)"><path fill="none" stroke="#000000" d="M 840 1371 L 1071 1364" stroke-miterlimit="10"/></g><g transform="translate(-158,-278) scale(1,1)"><path fill="#000000" stroke="none" d="M 1060.9694906059478 1368.5154048872532 L 1071 1364 L 1060.7144853731306 1360.1002322042898 L 1049.0100940588015 1364.666360786097"/></g><g transform="translate(-158,-278) scale(1,1)"><path fill="none" stroke="#000000" d="M 1060.9694906059478 1368.5154048872532 L 1071 1364 L 1060.7144853731306 1360.1002322042898 L 1049.0100940588015 1364.666360786097 L 1060.9694906059478 1368.5154048872532" stroke-miterlimit="10"/></g><g transform="translate(-158,-278) scale(1,1)"><path fill="none" stroke="#000000" d="M 470 887 L 703 720" stroke-miterlimit="10"/></g><g transform="translate(-158,-278) scale(1,1)"><path fill="#000000" stroke="none" d="M 697.1921690971766 729.3417932006768 L 703 720 L 692.287598063988 722.4988887052697 L 685.1186288282303 732.8162617411397"/></g><g transform="translate(-158,-278) scale(1,1)"><path fill="none" stroke="#000000" d="M 697.1921690971766 729.3417932006768 L 703 720 L 692.287598063988 722.4988887052697 L 685.1186288282303 732.8162617411397 L 697.1921690971766 729.3417932006768" stroke-miterlimit="10"/></g><g transform="translate(-158,-278) scale(1,1)"><path fill="none" stroke="#000000" d="M 1042 855 L 1023 749" stroke-miterlimit="10"/></g><g transform="translate(-158,-278) scale(1,1)"><path fill="#000000" stroke="none" d="M 1028.9365164431822 758.2605492558395 L 1023 749 L 1020.6495538572834 759.7459482099156 L 1026.881534522924 770.6548768121028"/></g><g transform="translate(-158,-278) scale(1,1)"><path fill="none" stroke="#000000" d="M 1028.9365164431822 758.2605492558395 L 1023 749 L 1020.6495538572834 759.7459482099156 L 1026.881534522924 770.6548768121028 L 1028.9365164431822 758.2605492558395" stroke-miterlimit="10"/></g><g transform="translate(-158,-278) scale(1,1)"><path fill="none" stroke="#000000" d="M 815 938 L 630 938" stroke-miterlimit="10"/></g><g transform="translate(-158,-278) scale(1,1)"><path fill="#FFFFFF" stroke="none" d="M 650.3253497152483 929.580964487968 L 630 938 L 650.3253497152483 946.419035512032"/></g><g transform="translate(-158,-278) scale(1,1)"><path fill="none" stroke="#000000" d="M 650.3253497152483 929.580964487968 L 630 938 L 650.3253497152483 946.419035512032 L 650.3253497152483 929.580964487968" stroke-miterlimit="10"/></g><g transform="translate(-158,-278) scale(1,1)"><path fill="none" stroke="#000000" d="M 1189 1247 L 1091 1019" stroke-miterlimit="10"/></g><g transform="translate(-158,-278) scale(1,1)"><path fill="#000000" stroke="none" d="M 1098.8805565702096 1026.6744268935033 L 1091 1019 L 1091.1457556922028 1029.999034288436 L 1099.6876177899464 1039.212008735794"/></g><g transform="translate(-158,-278) scale(1,1)"><path fill="none" stroke="#000000" d="M 1098.8805565702096 1026.6744268935033 L 1091 1019 L 1091.1457556922028 1029.999034288436 L 1099.6876177899464 1039.212008735794 L 1098.8805565702096 1026.6744268935033" stroke-miterlimit="10"/></g><g transform="translate(-158,-278) scale(1,1)"><path fill="none" stroke="#000000" d="M 438 991 L 658 1279" stroke-miterlimit="10" stroke-dasharray="3"/></g><g transform="translate(-158,-278) scale(1,1)"><path fill="none" stroke="#000000" d="M 648.4856645525311 1273.4793640771159 L 658 1279 L 655.1760279841446 1268.3686697890778" stroke-miterlimit="10"/></g><g transform="translate(-158,-278) scale(1,1)"><path fill="none" stroke="#000000" d="M 995 1019 L 802 1279" stroke-miterlimit="10" stroke-dasharray="3"/></g><g transform="translate(-158,-278) scale(1,1)"><path fill="none" stroke="#000000" d="M 804.6773040379409 1268.3307899501217 L 802 1279 L 811.4374106166988 1273.3488690643535" stroke-miterlimit="10"/></g><g transform="translate(-158,-278) scale(1,1)"><path fill="none" stroke="#000000" d="M 389 991 L 343 1263" stroke-miterlimit="10" stroke-dasharray="3"/></g><g transform="translate(-158,-278) scale(1,1)"><path fill="none" stroke="#000000" d="M 340.54404344379236 1252.277673881381 L 343 1263 L 348.8452059733752 1253.6815469562368" stroke-miterlimit="10"/></g><g transform="translate(-158,-278) scale(1,1)"><path fill="none" stroke="#000000" d="M 840 1338 L 1439 1137" stroke-miterlimit="10"/></g><g transform="translate(-158,-278) scale(1,1)"><path fill="#000000" stroke="none" d="M 1430.7044519865358 1144.2238413019882 L 1439 1137 L 1428.0261345751696 1136.242188916872 L 1418.1429371901804 1143.9987806757492"/></g><g transform="translate(-158,-278) scale(1,1)"><path fill="none" stroke="#000000" d="M 1430.7044519865358 1144.2238413019882 L 1439 1137 L 1428.0261345751696 1136.242188916872 L 1418.1429371901804 1143.9987806757492 L 1430.7044519865358 1144.2238413019882" stroke-miterlimit="10"/></g></g></svg>