<svg version="1.1" xmlns="http://www.w3.org/2000/svg" xmlns:xlink="http://www.w3.org/1999/xlink" width="560.37109375" height="395"><defs/><g><g transform="translate(-246,-246) scale(1,1)"><rect fill="#C0C0C0" stroke="none" x="263" y="311" width="233.3388671875" height="205" opacity="0.2"/></g><g transform="translate(-246,-246) scale(1,1)"><rect fill="#ffffff" stroke="none" x="256" y="304" width="233.3388671875" height="205"/></g><g transform="translate(-246,-246) scale(1,1)"><path fill="none" stroke="#000000" d="M 256 304 L 489.3388671875 304 L 489.3388671875 509 L 256 509 L 256 304 Z Z" stroke-miterlimit="10"/></g><g transform="translate(-246,-246) scale(1,1)"><path fill="none" stroke="#000000" d="M 256 329 L 489.3388671875 329" stroke-miterlimit="10"/></g><g transform="translate(-246,-246) scale(1,1)"><path fill="none" stroke="#000000" d="M 256 382 L 489.3388671875 382" stroke-miterlimit="10"/></g><g transform="translate(-246,-246) scale(1,1)"><g><path fill="none" stroke="none"/><text fill="#000000" stroke="none" font-family="Arial" font-size="13px" font-style="normal" font-weight="bold" text-decoration="none" x="358.939453125" y="323.5">Date</text></g></g><g transform="translate(-246,-246) scale(1,1)"><g><path fill="none" stroke="none"/><text fill="#000000" stroke="none" font-family="Arial" font-size="13px" font-style="normal" font-weight="normal" text-decoration="none" x="261" y="346.5">-int year</text></g></g><g transform="translate(-246,-246) scale(1,1)"><g><path fill="none" stroke="none"/><text fill="#000000" stroke="none" font-family="Arial" font-size="13px" font-style="normal" font-weight="normal" text-decoration="none" x="261" y="361.5">+int month</text></g></g><g transform="translate(-246,-246) scale(1,1)"><g><path fill="none" stroke="none"/><text fill="#000000" stroke="none" font-family="Arial" font-size="13px" font-style="normal" font-weight="normal" text-decoration="none" x="261" y="376.5">+int day</text></g></g><g transform="translate(-246,-246) scale(1,1)"><g><path fill="none" stroke="none"/><text fill="#000000" stroke="none" font-family="Arial" font-size="13px" font-style="normal" font-weight="normal" text-decoration="none" x="261" y="399.5">«constructor»+Date()</text></g></g><g transform="translate(-246,-246) scale(1,1)"><g><path fill="none" stroke="none"/><text fill="#000000" stroke="none" font-family="Arial" font-size="13px" font-style="normal" font-weight="normal" text-decoration="none" x="261" y="414.5">«constructor»+Date(y: int, m: int, d: int)</text></g></g><g transform="translate(-246,-246) scale(1,1)"><g><path fill="none" stroke="none"/><text fill="#000000" stroke="none" font-family="Arial" font-size="13px" font-style="normal" font-weight="normal" text-decoration="none" x="261" y="429.5">+void setYear(y: int): void setYear</text></g></g><g transform="translate(-246,-246) scale(1,1)"><g><path fill="none" stroke="none"/><text fill="#000000" stroke="none" font-family="Arial" font-size="13px" font-style="normal" font-weight="normal" text-decoration="none" x="261" y="444.5">+void setMonth(m: int): void setMonth</text></g></g><g transform="translate(-246,-246) scale(1,1)"><g><path fill="none" stroke="none"/><text fill="#000000" stroke="none" font-family="Arial" font-size="13px" font-style="normal" font-weight="normal" text-decoration="none" x="261" y="459.5">+void setDay(d: int): void setDay</text></g></g><g transform="translate(-246,-246) scale(1,1)"><g><path fill="none" stroke="none"/><text fill="#000000" stroke="none" font-family="Arial" font-size="13px" font-style="normal" font-weight="normal" text-decoration="none" x="261" y="474.5">+int getYear(): int getYear</text></g></g><g transform="translate(-246,-246) scale(1,1)"><g><path fill="none" stroke="none"/><text fill="#000000" stroke="none" font-family="Arial" font-size="13px" font-style="normal" font-weight="normal" text-decoration="none" x="261" y="489.5">+int getMonth(): int getMonth</text></g></g><g transform="translate(-246,-246) scale(1,1)"><g><path fill="none" stroke="none"/><text fill="#000000" stroke="none" font-family="Arial" font-size="13px" font-style="normal" font-weight="normal" text-decoration="none" x="261" y="504.5">+int getDay(): int getDay</text></g></g><g transform="translate(-246,-246) scale(1,1)"><rect fill="#C0C0C0" stroke="none" x="575" y="463" width="214.79736328125" height="175" opacity="0.2"/></g><g transform="translate(-246,-246) scale(1,1)"><rect fill="#ffffff" stroke="none" x="568" y="456" width="214.79736328125" height="175"/></g><g transform="translate(-246,-246) scale(1,1)"><path fill="none" stroke="#000000" d="M 568 456 L 782.79736328125 456 L 782.79736328125 631 L 568 631 L 568 456 Z Z" stroke-miterlimit="10"/></g><g transform="translate(-246,-246) scale(1,1)"><path fill="none" stroke="#000000" d="M 568 481 L 782.79736328125 481" stroke-miterlimit="10"/></g><g transform="translate(-246,-246) scale(1,1)"><path fill="none" stroke="#000000" d="M 568 519 L 782.79736328125 519" stroke-miterlimit="10"/></g><g transform="translate(-246,-246) scale(1,1)"><g><path fill="none" stroke="none"/><text fill="#000000" stroke="none" font-family="Arial" font-size="13px" font-style="normal" font-weight="bold" text-decoration="none" x="661.19580078125" y="475.5">Time</text></g></g><g transform="translate(-246,-246) scale(1,1)"><g><path fill="none" stroke="none"/><text fill="#000000" stroke="none" font-family="Arial" font-size="13px" font-style="normal" font-weight="normal" text-decoration="none" x="573" y="498.5">-int hour</text></g></g><g transform="translate(-246,-246) scale(1,1)"><g><path fill="none" stroke="none"/><text fill="#000000" stroke="none" font-family="Arial" font-size="13px" font-style="normal" font-weight="normal" text-decoration="none" x="573" y="513.5">-int minute</text></g></g><g transform="translate(-246,-246) scale(1,1)"><g><path fill="none" stroke="none"/><text fill="#000000" stroke="none" font-family="Arial" font-size="13px" font-style="normal" font-weight="normal" text-decoration="none" x="573" y="536.5">«constructor»+Time()</text></g></g><g transform="translate(-246,-246) scale(1,1)"><g><path fill="none" stroke="none"/><text fill="#000000" stroke="none" font-family="Arial" font-size="13px" font-style="normal" font-weight="normal" text-decoration="none" x="573" y="551.5">«constructor»+Time(h: int, m: int)</text></g></g><g transform="translate(-246,-246) scale(1,1)"><g><path fill="none" stroke="none"/><text fill="#000000" stroke="none" font-family="Arial" font-size="13px" font-style="normal" font-weight="normal" text-decoration="none" x="573" y="566.5">+int getHour(): int getHour</text></g></g><g transform="translate(-246,-246) scale(1,1)"><g><path fill="none" stroke="none"/><text fill="#000000" stroke="none" font-family="Arial" font-size="13px" font-style="normal" font-weight="normal" text-decoration="none" x="573" y="581.5">+int getMinute(): int getMinute</text></g></g><g transform="translate(-246,-246) scale(1,1)"><g><path fill="none" stroke="none"/><text fill="#000000" stroke="none" font-family="Arial" font-size="13px" font-style="normal" font-weight="normal" text-decoration="none" x="573" y="596.5">+operator(m: int): operator</text></g></g><g transform="translate(-246,-246) scale(1,1)"><g><path fill="none" stroke="none"/><text fill="#000000" stroke="none" font-family="Arial" font-size="13px" font-style="normal" font-weight="normal" text-decoration="none" x="573" y="611.5">+operator(y: const Time&amp;): operator</text></g></g><g transform="translate(-246,-246) scale(1,1)"><g><path fill="none" stroke="none"/><text fill="#000000" stroke="none" font-family="Arial" font-size="13px" font-style="normal" font-weight="normal" text-decoration="none" x="573" y="626.5">+operator(y: const Time&amp;): operator</text></g></g><g transform="translate(-246,-246) scale(1,1)"><rect fill="#C0C0C0" stroke="none" x="559" y="263" width="244.37109375" height="130" opacity="0.2"/></g><g transform="translate(-246,-246) scale(1,1)"><rect fill="#ffffff" stroke="none" x="552" y="256" width="244.37109375" height="130"/></g><g transform="translate(-246,-246) scale(1,1)"><path fill="none" stroke="#000000" d="M 552 256 L 796.37109375 256 L 796.37109375 386 L 552 386 L 552 256 Z Z" stroke-miterlimit="10"/></g><g transform="translate(-246,-246) scale(1,1)"><path fill="none" stroke="#000000" d="M 552 281 L 796.37109375 281" stroke-miterlimit="10"/></g><g transform="translate(-246,-246) scale(1,1)"><path fill="none" stroke="#000000" d="M 552 319 L 796.37109375 319" stroke-miterlimit="10"/></g><g transform="translate(-246,-246) scale(1,1)"><g><path fill="none" stroke="none"/><text fill="#000000" stroke="none" font-family="Arial" font-size="13px" font-style="normal" font-weight="bold" text-decoration="none" x="655.396484375" y="275.5">Period</text></g></g><g transform="translate(-246,-246) scale(1,1)"><g><path fill="none" stroke="none"/><text fill="#000000" stroke="none" font-family="Arial" font-size="13px" font-style="normal" font-weight="normal" text-decoration="none" x="557" y="298.5">-Time startTime</text></g></g><g transform="translate(-246,-246) scale(1,1)"><g><path fill="none" stroke="none"/><text fill="#000000" stroke="none" font-family="Arial" font-size="13px" font-style="normal" font-weight="normal" text-decoration="none" x="557" y="313.5">+Time endTime</text></g></g><g transform="translate(-246,-246) scale(1,1)"><g><path fill="none" stroke="none"/><text fill="#000000" stroke="none" font-family="Arial" font-size="13px" font-style="normal" font-weight="normal" text-decoration="none" x="557" y="336.5">«constructor»+Period()</text></g></g><g transform="translate(-246,-246) scale(1,1)"><g><path fill="none" stroke="none"/><text fill="#000000" stroke="none" font-family="Arial" font-size="13px" font-style="normal" font-weight="normal" text-decoration="none" x="557" y="351.5">«constructor»+Period(, )</text></g></g><g transform="translate(-246,-246) scale(1,1)"><g><path fill="none" stroke="none"/><text fill="#000000" stroke="none" font-family="Arial" font-size="13px" font-style="normal" font-weight="normal" text-decoration="none" x="557" y="366.5">+Time getStartTime(): Time getStartTime</text></g></g><g transform="translate(-246,-246) scale(1,1)"><g><path fill="none" stroke="none"/><text fill="#000000" stroke="none" font-family="Arial" font-size="13px" font-style="normal" font-weight="normal" text-decoration="none" x="557" y="381.5">+Time getEndTime(): Time getEndTime</text></g></g><g transform="translate(-246,-246) scale(1,1)"><path fill="none" stroke="#000000" d="M 684 455 L 688 416 L 684 387" stroke-miterlimit="10"/></g><g transform="translate(-246,-246) scale(1,1)"><path fill="#000000" stroke="none" d="M 689.5586386735307 396.49218289420975 L 684 387 L 681.2185642074606 397.6425379929781 L 687.0060227370146 408.79366484335645"/></g><g transform="translate(-246,-246) scale(1,1)"><path fill="none" stroke="#000000" d="M 689.5586386735307 396.49218289420975 L 684 387 L 681.2185642074606 397.6425379929781 L 687.0060227370146 408.79366484335645 L 689.5586386735307 396.49218289420975" stroke-miterlimit="10"/></g><g transform="translate(-246,-246) scale(1,1)"><path fill="none" stroke="#000000" d="M 650 387 L 640 416 L 651 455" stroke-miterlimit="10" stroke-dasharray="3"/></g><g transform="translate(-246,-246) scale(1,1)"><path fill="none" stroke="#000000" d="M 644.1897896057498 446.36165326083477 L 651 455 L 652.292687606423 444.0762204914141" stroke-miterlimit="10"/></g></g></svg>