<svg version="1.1" xmlns="http://www.w3.org/2000/svg" xmlns:xlink="http://www.w3.org/1999/xlink" width="1220.69775390625" height="508"><defs/><g><g transform="translate(-70,-62) scale(1,1)"><rect fill="#C0C0C0" stroke="none" x="87" y="143" width="257.904296875" height="132" opacity="0.2"/></g><g transform="translate(-70,-62) scale(1,1)"><rect fill="#ffffff" stroke="none" x="80" y="136" width="257.904296875" height="132"/></g><g transform="translate(-70,-62) scale(1,1)"><path fill="none" stroke="#000000" d="M 80 136 L 337.904296875 136 L 337.904296875 268 L 80 268 L 80 136 Z Z" stroke-miterlimit="10"/></g><g transform="translate(-70,-62) scale(1,1)"><path fill="none" stroke="#000000" d="M 80 161 L 337.904296875 161" stroke-miterlimit="10"/></g><g transform="translate(-70,-62) scale(1,1)"><path fill="none" stroke="#000000" d="M 80 171 L 337.904296875 171" stroke-miterlimit="10"/></g><g transform="translate(-70,-62) scale(1,1)"><g><path fill="none" stroke="none"/><text fill="#000000" stroke="none" font-family="Arial" font-size="13px" font-style="normal" font-weight="bold" text-decoration="none" x="195.228515625" y="155.5">User</text></g></g><g transform="translate(-70,-62) scale(1,1)"><g><path fill="none" stroke="none"/><text fill="#000000" stroke="none" font-family="Arial" font-size="13px" font-style="normal" font-weight="normal" text-decoration="none" x="85" y="188.5">+getId(): getId</text></g></g><g transform="translate(-70,-62) scale(1,1)"><g><path fill="none" stroke="none"/><text fill="#000000" stroke="none" font-family="Arial" font-size="13px" font-style="normal" font-weight="normal" text-decoration="none" x="85" y="203.5">+std::string getName(): std::string getName</text></g></g><g transform="translate(-70,-62) scale(1,1)"><g><path fill="none" stroke="none"/><text fill="#000000" stroke="none" font-family="Arial" font-size="13px" font-style="normal" font-weight="normal" text-decoration="none" x="85" y="218.5">+std::string getType(): std::string getType</text></g></g><g transform="translate(-70,-62) scale(1,1)"><g><path fill="none" stroke="none"/><text fill="#000000" stroke="none" font-family="Arial" font-size="13px" font-style="normal" font-weight="normal" text-decoration="none" x="85" y="233.5">+getPosition(): getPosition</text></g></g><g transform="translate(-70,-62) scale(1,1)"><g><path fill="none" stroke="none"/><text fill="#000000" stroke="none" font-family="Arial" font-size="13px" font-style="normal" font-weight="normal" text-decoration="none" x="85" y="248.5">«constructor»+User()</text></g></g><g transform="translate(-70,-62) scale(1,1)"><g><path fill="none" stroke="none"/><text fill="#000000" stroke="none" font-family="Arial" font-size="13px" font-style="normal" font-weight="normal" text-decoration="none" x="85" y="263.5">«constructor»+User(, , , )</text></g></g><g transform="translate(-70,-62) scale(1,1)"><rect fill="#C0C0C0" stroke="none" x="551" y="79" width="336.69775390625" height="265" opacity="0.2"/></g><g transform="translate(-70,-62) scale(1,1)"><rect fill="#ffffff" stroke="none" x="544" y="72" width="336.69775390625" height="265"/></g><g transform="translate(-70,-62) scale(1,1)"><path fill="none" stroke="#000000" d="M 544 72 L 880.69775390625 72 L 880.69775390625 337 L 544 337 L 544 72 Z Z" stroke-miterlimit="10"/></g><g transform="translate(-70,-62) scale(1,1)"><path fill="none" stroke="#000000" d="M 544 97 L 880.69775390625 97" stroke-miterlimit="10"/></g><g transform="translate(-70,-62) scale(1,1)"><path fill="none" stroke="#000000" d="M 544 180 L 880.69775390625 180" stroke-miterlimit="10"/></g><g transform="translate(-70,-62) scale(1,1)"><g><path fill="none" stroke="none"/><text fill="#000000" stroke="none" font-family="Arial" font-size="13px" font-style="normal" font-weight="bold" text-decoration="none" x="698.26025390625" y="91.5">Card</text></g></g><g transform="translate(-70,-62) scale(1,1)"><g><path fill="none" stroke="none"/><text fill="#000000" stroke="none" font-family="Arial" font-size="13px" font-style="normal" font-weight="normal" text-decoration="none" x="549" y="114.5">#bool state</text></g></g><g transform="translate(-70,-62) scale(1,1)"><g><path fill="none" stroke="none"/><text fill="#000000" stroke="none" font-family="Arial" font-size="13px" font-style="normal" font-weight="normal" text-decoration="none" x="549" y="129.5">#User* cardholder</text></g></g><g transform="translate(-70,-62) scale(1,1)"><g><path fill="none" stroke="none"/><text fill="#000000" stroke="none" font-family="Arial" font-size="13px" font-style="normal" font-weight="normal" text-decoration="none" x="549" y="144.5">#int num</text></g></g><g transform="translate(-70,-62) scale(1,1)"><g><path fill="none" stroke="none"/><text fill="#000000" stroke="none" font-family="Arial" font-size="13px" font-style="normal" font-weight="normal" text-decoration="none" x="549" y="159.5">#int balance</text></g></g><g transform="translate(-70,-62) scale(1,1)"><g><path fill="none" stroke="none"/><text fill="#000000" stroke="none" font-family="Arial" font-size="13px" font-style="normal" font-weight="normal" text-decoration="none" x="549" y="174.5">#int taking</text></g></g><g transform="translate(-70,-62) scale(1,1)"><g><path fill="none" stroke="none"/><text fill="#000000" stroke="none" font-family="Arial" font-size="13px" font-style="normal" font-weight="normal" text-decoration="none" x="549" y="197.5">«constructor»+Card()</text></g></g><g transform="translate(-70,-62) scale(1,1)"><g><path fill="none" stroke="none"/><text fill="#000000" stroke="none" font-family="Arial" font-size="13px" font-style="normal" font-weight="normal" text-decoration="none" x="549" y="212.5">«constructor»+Card(, , , , )</text></g></g><g transform="translate(-70,-62) scale(1,1)"><g><path fill="none" stroke="none"/><text fill="#000000" stroke="none" font-family="Arial" font-size="13px" font-style="normal" font-weight="normal" text-decoration="none" x="549" y="227.5">+int getNum(): int getNum</text></g></g><g transform="translate(-70,-62) scale(1,1)"><g><path fill="none" stroke="none"/><text fill="#000000" stroke="none" font-family="Arial" font-size="13px" font-style="normal" font-weight="normal" text-decoration="none" x="549" y="242.5">+ShowInfo(): ShowInfo</text></g></g><g transform="translate(-70,-62) scale(1,1)"><g><path fill="none" stroke="none"/><text fill="#000000" stroke="none" font-family="Arial" font-size="13px" font-style="normal" font-weight="normal" text-decoration="none" x="549" y="257.5">+AddMoney(): AddMoney</text></g></g><g transform="translate(-70,-62) scale(1,1)"><g><path fill="none" stroke="none"/><text fill="#000000" stroke="none" font-family="Arial" font-size="13px" font-style="normal" font-weight="normal" text-decoration="none" x="549" y="272.5">+TakeBus(busTaken: Bus*): TakeBus</text></g></g><g transform="translate(-70,-62) scale(1,1)"><g><path fill="none" stroke="none"/><text fill="#000000" stroke="none" font-family="Arial" font-size="13px" font-style="normal" font-weight="normal" text-decoration="none" x="549" y="287.5">+ShowTakingResult(busTaken: Bus*): ShowTakingResult</text></g></g><g transform="translate(-70,-62) scale(1,1)"><g><path fill="none" stroke="none"/><text fill="#000000" stroke="none" font-family="Arial" font-size="13px" font-style="normal" font-weight="normal" text-decoration="none" x="549" y="302.5">+addTaking(): addTaking</text></g></g><g transform="translate(-70,-62) scale(1,1)"><g><path fill="none" stroke="none"/><text fill="#000000" stroke="none" font-family="Arial" font-size="13px" font-style="normal" font-weight="normal" text-decoration="none" x="549" y="317.5">+std::string getState(): std::string getState</text></g></g><g transform="translate(-70,-62) scale(1,1)"><g><path fill="none" stroke="none"/><text fill="#000000" stroke="none" font-family="Arial" font-size="13px" font-style="normal" font-weight="normal" text-decoration="none" x="549" y="332.5">+void setState(stat: bool): void setState</text></g></g><g transform="translate(-70,-62) scale(1,1)"><rect fill="#C0C0C0" stroke="none" x="551" y="495" width="336.69775390625" height="72" opacity="0.2"/></g><g transform="translate(-70,-62) scale(1,1)"><rect fill="#ffffff" stroke="none" x="544" y="488" width="336.69775390625" height="72"/></g><g transform="translate(-70,-62) scale(1,1)"><path fill="none" stroke="#000000" d="M 544 488 L 880.69775390625 488 L 880.69775390625 560 L 544 560 L 544 488 Z Z" stroke-miterlimit="10"/></g><g transform="translate(-70,-62) scale(1,1)"><path fill="none" stroke="#000000" d="M 544 513 L 880.69775390625 513" stroke-miterlimit="10"/></g><g transform="translate(-70,-62) scale(1,1)"><path fill="none" stroke="#000000" d="M 544 523 L 880.69775390625 523" stroke-miterlimit="10"/></g><g transform="translate(-70,-62) scale(1,1)"><g><path fill="none" stroke="none"/><text fill="#000000" stroke="none" font-family="Arial" font-size="13px" font-style="normal" font-weight="bold" text-decoration="none" x="675.85302734375" y="507.5">StudentCard</text></g></g><g transform="translate(-70,-62) scale(1,1)"><g><path fill="none" stroke="none"/><text fill="#000000" stroke="none" font-family="Arial" font-size="13px" font-style="normal" font-weight="normal" text-decoration="none" x="549" y="540.5">+ShowTakingResult(busTaken: Bus*): ShowTakingResult</text></g></g><g transform="translate(-70,-62) scale(1,1)"><g><path fill="none" stroke="none"/><text fill="#000000" stroke="none" font-family="Arial" font-size="13px" font-style="normal" font-weight="normal" text-decoration="none" x="549" y="555.5">«constructor»+StudentCard(, , , , )</text></g></g><g transform="translate(-70,-62) scale(1,1)"><rect fill="#C0C0C0" stroke="none" x="111" y="495" width="336.69775390625" height="72" opacity="0.2"/></g><g transform="translate(-70,-62) scale(1,1)"><rect fill="#ffffff" stroke="none" x="104" y="488" width="336.69775390625" height="72"/></g><g transform="translate(-70,-62) scale(1,1)"><path fill="none" stroke="#000000" d="M 104 488 L 440.69775390625 488 L 440.69775390625 560 L 104 560 L 104 488 Z Z" stroke-miterlimit="10"/></g><g transform="translate(-70,-62) scale(1,1)"><path fill="none" stroke="#000000" d="M 104 513 L 440.69775390625 513" stroke-miterlimit="10"/></g><g transform="translate(-70,-62) scale(1,1)"><path fill="none" stroke="#000000" d="M 104 523 L 440.69775390625 523" stroke-miterlimit="10"/></g><g transform="translate(-70,-62) scale(1,1)"><g><path fill="none" stroke="none"/><text fill="#000000" stroke="none" font-family="Arial" font-size="13px" font-style="normal" font-weight="bold" text-decoration="none" x="235.1357421875" y="507.5">TeacherCard</text></g></g><g transform="translate(-70,-62) scale(1,1)"><g><path fill="none" stroke="none"/><text fill="#000000" stroke="none" font-family="Arial" font-size="13px" font-style="normal" font-weight="normal" text-decoration="none" x="109" y="540.5">«constructor»+TeacherCard(, , , , )</text></g></g><g transform="translate(-70,-62) scale(1,1)"><g><path fill="none" stroke="none"/><text fill="#000000" stroke="none" font-family="Arial" font-size="13px" font-style="normal" font-weight="normal" text-decoration="none" x="109" y="555.5">+ShowTakingResult(busTaken: Bus*): ShowTakingResult</text></g></g><g transform="translate(-70,-62) scale(1,1)"><rect fill="#C0C0C0" stroke="none" x="951" y="495" width="336.69775390625" height="72" opacity="0.2"/></g><g transform="translate(-70,-62) scale(1,1)"><rect fill="#ffffff" stroke="none" x="944" y="488" width="336.69775390625" height="72"/></g><g transform="translate(-70,-62) scale(1,1)"><path fill="none" stroke="#000000" d="M 944 488 L 1280.69775390625 488 L 1280.69775390625 560 L 944 560 L 944 488 Z Z" stroke-miterlimit="10"/></g><g transform="translate(-70,-62) scale(1,1)"><path fill="none" stroke="#000000" d="M 944 513 L 1280.69775390625 513" stroke-miterlimit="10"/></g><g transform="translate(-70,-62) scale(1,1)"><path fill="none" stroke="#000000" d="M 944 523 L 1280.69775390625 523" stroke-miterlimit="10"/></g><g transform="translate(-70,-62) scale(1,1)"><g><path fill="none" stroke="none"/><text fill="#000000" stroke="none" font-family="Arial" font-size="13px" font-style="normal" font-weight="bold" text-decoration="none" x="1084.53662109375" y="507.5">LimitCard</text></g></g><g transform="translate(-70,-62) scale(1,1)"><g><path fill="none" stroke="none"/><text fill="#000000" stroke="none" font-family="Arial" font-size="13px" font-style="normal" font-weight="normal" text-decoration="none" x="949" y="540.5">+ShowTakingResult(busTaken: Bus*): ShowTakingResult</text></g></g><g transform="translate(-70,-62) scale(1,1)"><g><path fill="none" stroke="none"/><text fill="#000000" stroke="none" font-family="Arial" font-size="13px" font-style="normal" font-weight="normal" text-decoration="none" x="949" y="555.5">«constructor»+LimitCard(, , , , , )</text></g></g><g transform="translate(-70,-62) scale(1,1)"><path fill="none" stroke="#000000" d="M 339 203 L 543 203" stroke-miterlimit="10"/></g><g transform="translate(-70,-62) scale(1,1)"><path fill="#000000" stroke="none" d="M 532.8373251423759 207.209517756016 L 543 203 L 532.8373251423758 198.790482243984 L 521 203"/></g><g transform="translate(-70,-62) scale(1,1)"><path fill="none" stroke="#000000" d="M 532.8373251423759 207.209517756016 L 543 203 L 532.8373251423758 198.790482243984 L 521 203 L 532.8373251423759 207.209517756016" stroke-miterlimit="10"/></g><g transform="translate(-70,-62) scale(1,1)"><path fill="none" stroke="#000000" d="M 323 487 L 543 327" stroke-miterlimit="10"/></g><g transform="translate(-70,-62) scale(1,1)"><path fill="#FFFFFF" stroke="none" d="M 531.5139946690955 345.76357326146683 L 543 327 L 521.6103178492988 332.1460176342464"/></g><g transform="translate(-70,-62) scale(1,1)"><path fill="none" stroke="#000000" d="M 531.5139946690955 345.76357326146683 L 543 327 L 521.6103178492988 332.1460176342464 L 531.5139946690955 345.76357326146683" stroke-miterlimit="10"/></g><g transform="translate(-70,-62) scale(1,1)"><path fill="none" stroke="#000000" d="M 712 487 L 712 338" stroke-miterlimit="10"/></g><g transform="translate(-70,-62) scale(1,1)"><path fill="#FFFFFF" stroke="none" d="M 720.419035512032 358.3253497152483 L 712 338 L 703.580964487968 358.3253497152483"/></g><g transform="translate(-70,-62) scale(1,1)"><path fill="none" stroke="#000000" d="M 720.419035512032 358.3253497152483 L 712 338 L 703.580964487968 358.3253497152483 L 720.419035512032 358.3253497152483" stroke-miterlimit="10"/></g><g transform="translate(-70,-62) scale(1,1)"><path fill="none" stroke="#000000" d="M 1066 487 L 880 338" stroke-miterlimit="10"/></g><g transform="translate(-70,-62) scale(1,1)"><path fill="#FFFFFF" stroke="none" d="M 901.1267444472395 344.1368289092196 L 880 338 L 890.5994709263475 357.27825759972916"/></g><g transform="translate(-70,-62) scale(1,1)"><path fill="none" stroke="#000000" d="M 901.1267444472395 344.1368289092196 L 880 338 L 890.5994709263475 357.27825759972916 L 901.1267444472395 344.1368289092196" stroke-miterlimit="10"/></g><g transform="translate(-70,-62) scale(1,1)"><rect fill="#C0C0C0" stroke="none" x="1087" y="183" width="38.6181640625" height="44" opacity="0.2"/></g><g transform="translate(-70,-62) scale(1,1)"><rect fill="#ffffff" stroke="none" x="1080" y="176" width="38.6181640625" height="44"/></g><g transform="translate(-70,-62) scale(1,1)"><path fill="none" stroke="#000000" d="M 1080 176 L 1118.6181640625 176 L 1118.6181640625 220 L 1080 220 L 1080 176 Z Z" stroke-miterlimit="10"/></g><g transform="translate(-70,-62) scale(1,1)"><path fill="none" stroke="#000000" d="M 1080 201 L 1118.6181640625 201" stroke-miterlimit="10"/></g><g transform="translate(-70,-62) scale(1,1)"><path fill="none" stroke="#000000" d="M 1080 211 L 1118.6181640625 211" stroke-miterlimit="10"/></g><g transform="translate(-70,-62) scale(1,1)"><g><path fill="none" stroke="none"/><text fill="#000000" stroke="none" font-family="Arial" font-size="13px" font-style="normal" font-weight="bold" text-decoration="none" x="1085.5791015625" y="195.5">Bus*</text></g></g><g transform="translate(-70,-62) scale(1,1)"><path fill="none" stroke="#000000" d="M 882 201 L 1079 198" stroke-miterlimit="10" stroke-dasharray="3"/></g><g transform="translate(-70,-62) scale(1,1)"><path fill="none" stroke="#000000" d="M 1068.9026002244125 202.36377334103923 L 1079 198 L 1068.7744064253206 193.94571386734046" stroke-miterlimit="10"/></g></g></svg>