<svg version="1.1" xmlns="http://www.w3.org/2000/svg" xmlns:xlink="http://www.w3.org/1999/xlink" width="345.6708984375" height="223"><defs/><g><g transform="translate(-142,-70) scale(1,1)"><rect fill="#C0C0C0" stroke="none" x="159" y="87" width="37.9072265625" height="24" opacity="0.2"/></g><g transform="translate(-142,-70) scale(1,1)"><rect fill="#ffffff" stroke="none" x="152" y="80" width="37.9072265625" height="24"/></g><g transform="translate(-142,-70) scale(1,1)"><path fill="none" stroke="#000000" d="M 152 80 L 189.9072265625 80 L 189.9072265625 104 L 152 104 L 152 80 Z Z" stroke-miterlimit="10"/></g><g transform="translate(-142,-70) scale(1,1)"><g><path fill="none" stroke="none"/><text fill="#000000" stroke="none" font-family="Arial" font-size="13px" font-style="normal" font-weight="bold" text-decoration="none" x="157.22998046875" y="99.5">User</text></g></g><g transform="translate(-142,-70) scale(1,1)"><rect fill="#C0C0C0" stroke="none" x="287" y="87" width="38.6181640625" height="24" opacity="0.2"/></g><g transform="translate(-142,-70) scale(1,1)"><rect fill="#ffffff" stroke="none" x="280" y="80" width="38.6181640625" height="24"/></g><g transform="translate(-142,-70) scale(1,1)"><path fill="none" stroke="#000000" d="M 280 80 L 318.6181640625 80 L 318.6181640625 104 L 280 104 L 280 80 Z Z" stroke-miterlimit="10"/></g><g transform="translate(-142,-70) scale(1,1)"><g><path fill="none" stroke="none"/><text fill="#000000" stroke="none" font-family="Arial" font-size="13px" font-style="normal" font-weight="bold" text-decoration="none" x="285.220458984375" y="99.5">Card</text></g></g><g transform="translate(-142,-70) scale(1,1)"><rect fill="#C0C0C0" stroke="none" x="159" y="266" width="87" height="24" opacity="0.2"/></g><g transform="translate(-142,-70) scale(1,1)"><rect fill="#ffffff" stroke="none" x="152" y="259" width="87" height="24"/></g><g transform="translate(-142,-70) scale(1,1)"><path fill="none" stroke="#000000" d="M 152 259 L 239 259 L 239 283 L 152 283 L 152 259 Z Z" stroke-miterlimit="10"/></g><g transform="translate(-142,-70) scale(1,1)"><g><path fill="none" stroke="none"/><text fill="#000000" stroke="none" font-family="Arial" font-size="13px" font-style="normal" font-weight="bold" text-decoration="none" x="159.004150390625" y="278.5">StudentCard</text></g></g><g transform="translate(-142,-70) scale(1,1)"><rect fill="#C0C0C0" stroke="none" x="279" y="266" width="87.51416015625" height="24" opacity="0.2"/></g><g transform="translate(-142,-70) scale(1,1)"><rect fill="#ffffff" stroke="none" x="272" y="259" width="87.51416015625" height="24"/></g><g transform="translate(-142,-70) scale(1,1)"><path fill="none" stroke="#000000" d="M 272 259 L 359.51416015625 259 L 359.51416015625 283 L 272 283 L 272 259 Z Z" stroke-miterlimit="10"/></g><g transform="translate(-142,-70) scale(1,1)"><g><path fill="none" stroke="none"/><text fill="#000000" stroke="none" font-family="Arial" font-size="13px" font-style="normal" font-weight="bold" text-decoration="none" x="278.5439453125" y="278.5">TeacherCard</text></g></g><g transform="translate(-142,-70) scale(1,1)"><rect fill="#C0C0C0" stroke="none" x="415" y="266" width="69.6708984375" height="24" opacity="0.2"/></g><g transform="translate(-142,-70) scale(1,1)"><rect fill="#ffffff" stroke="none" x="408" y="259" width="69.6708984375" height="24"/></g><g transform="translate(-142,-70) scale(1,1)"><path fill="none" stroke="#000000" d="M 408 259 L 477.6708984375 259 L 477.6708984375 283 L 408 283 L 408 259 Z Z" stroke-miterlimit="10"/></g><g transform="translate(-142,-70) scale(1,1)"><g><path fill="none" stroke="none"/><text fill="#000000" stroke="none" font-family="Arial" font-size="13px" font-style="normal" font-weight="bold" text-decoration="none" x="415.023193359375" y="278.5">LimitCard</text></g></g><g transform="translate(-142,-70) scale(1,1)"><path fill="none" stroke="#000000" d="M 191 92 L 279 92" stroke-miterlimit="10"/></g><g transform="translate(-142,-70) scale(1,1)"><path fill="#000000" stroke="none" d="M 268.83732514237585 96.20951775601598 L 279 92 L 268.83732514237585 87.79048224398402 L 257 92"/></g><g transform="translate(-142,-70) scale(1,1)"><path fill="none" stroke="#000000" d="M 268.83732514237585 96.20951775601598 L 279 92 L 268.83732514237585 87.79048224398402 L 257 92 L 268.83732514237585 96.20951775601598" stroke-miterlimit="10"/></g><g transform="translate(-142,-70) scale(1,1)"><path fill="none" stroke="#000000" d="M 192 258 Q 189 244 290 105" stroke-miterlimit="10"/></g><g transform="translate(-142,-70) scale(1,1)"><path fill="#FFFFFF" stroke="none" d="M 284.86313545996853 126.39188216818164 L 290 105 L 271.24134330624224 116.49403319317186"/></g><g transform="translate(-142,-70) scale(1,1)"><path fill="none" stroke="#000000" d="M 284.86313545996853 126.39188216818164 L 290 105 L 271.24134330624224 116.49403319317186 L 284.86313545996853 126.39188216818164" stroke-miterlimit="10"/></g><g transform="translate(-142,-70) scale(1,1)"><path fill="none" stroke="#000000" d="M 311 258 Q 307 244 300 105" stroke-miterlimit="10"/></g><g transform="translate(-142,-70) scale(1,1)"><path fill="#FFFFFF" stroke="none" d="M 309.4306632916051 124.87618147130814 L 300 105 L 292.6139032621246 125.72306866703737"/></g><g transform="translate(-142,-70) scale(1,1)"><path fill="none" stroke="#000000" d="M 309.4306632916051 124.87618147130814 L 300 105 L 292.6139032621246 125.72306866703737 L 309.4306632916051 124.87618147130814" stroke-miterlimit="10"/></g><g transform="translate(-142,-70) scale(1,1)"><path fill="none" stroke="#000000" d="M 430 258 Q 417 244 309 105" stroke-miterlimit="10"/></g><g transform="translate(-142,-70) scale(1,1)"><path fill="#FFFFFF" stroke="none" d="M 328.11872107945777 115.88459940860926 L 309 105 L 314.82240327057207 126.21555137522547"/></g><g transform="translate(-142,-70) scale(1,1)"><path fill="none" stroke="#000000" d="M 328.11872107945777 115.88459940860926 L 309 105 L 314.82240327057207 126.21555137522547 L 328.11872107945777 115.88459940860926" stroke-miterlimit="10"/></g></g></svg>