<svg version="1.1" xmlns="http://www.w3.org/2000/svg" xmlns:xlink="http://www.w3.org/1999/xlink" width="969" height="662"><defs/><g><g transform="translate(-182,-94) scale(1,1)"><path fill="#ffffff" stroke="none" d="M 423.58763636363636 462.09000000000003 C 423.58763636363636 450.44231356800003 432.72656183156363 441 444 441 C 455.27343816843637 441 464.41236363636364 450.44231356800003 464.41236363636364 462.09000000000003 C 464.41236363636364 473.73768643200003 455.27343816843637 483.18 444 483.18 C 432.72656183156363 483.18 423.58763636363636 473.73768643200003 423.58763636363636 462.09000000000003 Z"/></g><g transform="translate(-182,-94) scale(1,1)"><path fill="none" stroke="#000000" d="M 423.58763636363636 462.09000000000003 C 423.58763636363636 450.44231356800003 432.72656183156363 441 444 441 C 455.27343816843637 441 464.41236363636364 450.44231356800003 464.41236363636364 462.09000000000003 C 464.41236363636364 473.73768643200003 455.27343816843637 483.18 444 483.18 C 432.72656183156363 483.18 423.58763636363636 473.73768643200003 423.58763636363636 462.09000000000003 Z" stroke-miterlimit="10"/></g><g transform="translate(-182,-94) scale(1,1)"><path fill="none" stroke="#000000" d="M 444 483.18 L 444 523.8199999999999" stroke-miterlimit="10"/></g><g transform="translate(-182,-94) scale(1,1)"><path fill="none" stroke="#000000" d="M 422.3869090909091 498.42 L 465.6130909090909 498.42" stroke-miterlimit="10"/></g><g transform="translate(-182,-94) scale(1,1)"><path fill="none" stroke="#000000" d="M 444 523.8199999999999 L 413.9818181818182 566" stroke-miterlimit="10"/></g><g transform="translate(-182,-94) scale(1,1)"><path fill="none" stroke="#000000" d="M 444 523.8199999999999 L 474.0181818181818 566" stroke-miterlimit="10"/></g><g transform="translate(-182,-94) scale(1,1)"><g><path fill="none" stroke="none"/><text fill="#000000" stroke="none" font-family="Arial" font-size="13px" font-style="normal" font-weight="bold" text-decoration="none" x="431" y="586.5">用户</text></g></g><g transform="translate(-182,-94) scale(1,1)"><path fill="#C0C0C0" stroke="none" d="M 199 435 C 199 423.954304 222.505048 415 251.5 415 C 280.494952 415 304 423.954304 304 435 C 304 446.045696 280.494952 455 251.5 455 C 222.505048 455 199 446.045696 199 435 Z" opacity="0.2"/></g><g transform="translate(-182,-94) scale(1,1)"><path fill="#ffffff" stroke="none" d="M 192 428 C 192 416.954304 215.505048 408 244.5 408 C 273.494952 408 297 416.954304 297 428 C 297 439.045696 273.494952 448 244.5 448 C 215.505048 448 192 439.045696 192 428 Z"/></g><g transform="translate(-182,-94) scale(1,1)"><path fill="none" stroke="#000000" d="M 192 428 C 192 416.954304 215.505048 408 244.5 408 C 273.494952 408 297 416.954304 297 428 C 297 439.045696 273.494952 448 244.5 448 C 215.505048 448 192 439.045696 192 428 Z" stroke-miterlimit="10"/></g><g transform="translate(-182,-94) scale(1,1)"><g><path fill="none" stroke="none"/><text fill="#000000" stroke="none" font-family="Arial" font-size="13px" font-style="normal" font-weight="bold" text-decoration="none" x="212" y="435">申请校园卡</text></g></g><g transform="translate(-182,-94) scale(1,1)"><path fill="none" stroke="#000000" d="M 407 500 L 292 449" stroke-miterlimit="10"/></g><g transform="translate(-182,-94) scale(1,1)"><path fill="none" stroke="#000000" d="M 302.99663974413664 449.2718719140961 L 292 449 L 299.583556059273 456.96804100741605" stroke-miterlimit="10"/></g><g transform="translate(-182,-94) scale(1,1)"><path fill="#C0C0C0" stroke="none" d="M 199 614.5 C 199 601.5213072 222.505048 591 251.5 591 C 280.494952 591 304 601.5213072 304 614.5 C 304 627.4786928 280.494952 638 251.5 638 C 222.505048 638 199 627.4786928 199 614.5 Z" opacity="0.2"/></g><g transform="translate(-182,-94) scale(1,1)"><path fill="#ffffff" stroke="none" d="M 192 607.5 C 192 594.5213072 215.505048 584 244.5 584 C 273.494952 584 297 594.5213072 297 607.5 C 297 620.4786928 273.494952 631 244.5 631 C 215.505048 631 192 620.4786928 192 607.5 Z"/></g><g transform="translate(-182,-94) scale(1,1)"><path fill="none" stroke="#000000" d="M 192 607.5 C 192 594.5213072 215.505048 584 244.5 584 C 273.494952 584 297 594.5213072 297 607.5 C 297 620.4786928 273.494952 631 244.5 631 C 215.505048 631 192 620.4786928 192 607.5 Z" stroke-miterlimit="10"/></g><g transform="translate(-182,-94) scale(1,1)"><g><path fill="none" stroke="none"/><text fill="#000000" stroke="none" font-family="Arial" font-size="13px" font-style="normal" font-weight="bold" text-decoration="none" x="212" y="614.5">注销校园卡</text></g></g><g transform="translate(-182,-94) scale(1,1)"><path fill="none" stroke="#000000" d="M 407 533 L 297 583" stroke-miterlimit="10"/></g><g transform="translate(-182,-94) scale(1,1)"><path fill="none" stroke="#000000" d="M 304.50984767020555 574.962451370579 L 297 583 L 307.9936693532606 582.6268590733001" stroke-miterlimit="10"/></g><g transform="translate(-182,-94) scale(1,1)"><path fill="#ffffff" stroke="none" d="M 424.87345454545454 268.73 C 424.87345454545454 257.833420896 433.43669966894544 249 444 249 C 454.56330033105456 249 463.12654545454546 257.833420896 463.12654545454546 268.73 C 463.12654545454546 279.62657910400003 454.56330033105456 288.46 444 288.46 C 433.43669966894544 288.46 424.87345454545454 279.62657910400003 424.87345454545454 268.73 Z"/></g><g transform="translate(-182,-94) scale(1,1)"><path fill="none" stroke="#000000" d="M 424.87345454545454 268.73 C 424.87345454545454 257.833420896 433.43669966894544 249 444 249 C 454.56330033105456 249 463.12654545454546 257.833420896 463.12654545454546 268.73 C 463.12654545454546 279.62657910400003 454.56330033105456 288.46 444 288.46 C 433.43669966894544 288.46 424.87345454545454 279.62657910400003 424.87345454545454 268.73 Z" stroke-miterlimit="10"/></g><g transform="translate(-182,-94) scale(1,1)"><path fill="none" stroke="#000000" d="M 444 288.46 L 444 326.54" stroke-miterlimit="10"/></g><g transform="translate(-182,-94) scale(1,1)"><path fill="none" stroke="#000000" d="M 423.74836363636365 302.74 L 464.25163636363635 302.74" stroke-miterlimit="10"/></g><g transform="translate(-182,-94) scale(1,1)"><path fill="none" stroke="#000000" d="M 444 326.54 L 415.8727272727273 366" stroke-miterlimit="10"/></g><g transform="translate(-182,-94) scale(1,1)"><path fill="none" stroke="#000000" d="M 444 326.54 L 472.1272727272727 366" stroke-miterlimit="10"/></g><g transform="translate(-182,-94) scale(1,1)"><g><path fill="none" stroke="none"/><text fill="#000000" stroke="none" font-family="Arial" font-size="13px" font-style="normal" font-weight="bold" text-decoration="none" x="424.5" y="386.5">校园卡</text></g></g><g transform="translate(-182,-94) scale(1,1)"><path fill="none" stroke="#000000" d="M 283 407 L 399 344" stroke-miterlimit="10"/></g><g transform="translate(-182,-94) scale(1,1)"><path fill="none" stroke="#000000" d="M 392.07845115724604 352.54939539484354 L 399 344 L 388.0603904182359 345.1510613357137" stroke-miterlimit="10"/></g><g transform="translate(-182,-94) scale(1,1)"><path fill="#C0C0C0" stroke="none" d="M 615 192 C 615 182.6111584 638.505048 175 667.5 175 C 696.494952 175 720 182.6111584 720 192 C 720 201.3888416 696.494952 209 667.5 209 C 638.505048 209 615 201.3888416 615 192 Z" opacity="0.2"/></g><g transform="translate(-182,-94) scale(1,1)"><path fill="#ffffff" stroke="none" d="M 608 185 C 608 175.6111584 631.505048 168 660.5 168 C 689.494952 168 713 175.6111584 713 185 C 713 194.3888416 689.494952 202 660.5 202 C 631.505048 202 608 194.3888416 608 185 Z"/></g><g transform="translate(-182,-94) scale(1,1)"><path fill="none" stroke="#000000" d="M 608 185 C 608 175.6111584 631.505048 168 660.5 168 C 689.494952 168 713 175.6111584 713 185 C 713 194.3888416 689.494952 202 660.5 202 C 631.505048 202 608 194.3888416 608 185 Z" stroke-miterlimit="10"/></g><g transform="translate(-182,-94) scale(1,1)"><g><path fill="none" stroke="none"/><text fill="#000000" stroke="none" font-family="Arial" font-size="13px" font-style="normal" font-weight="bold" text-decoration="none" x="628" y="192">查看卡信息</text></g></g><g transform="translate(-182,-94) scale(1,1)"><path fill="#C0C0C0" stroke="none" d="M 615 274.5 C 615 263.7304464 637.6096176 255 665.5 255 C 693.3903824 255 716 263.7304464 716 274.5 C 716 285.2695536 693.3903824 294 665.5 294 C 637.6096176 294 615 285.2695536 615 274.5 Z" opacity="0.2"/></g><g transform="translate(-182,-94) scale(1,1)"><path fill="#ffffff" stroke="none" d="M 608 267.5 C 608 256.7304464 630.6096176 248 658.5 248 C 686.3903824 248 709 256.7304464 709 267.5 C 709 278.2695536 686.3903824 287 658.5 287 C 630.6096176 287 608 278.2695536 608 267.5 Z"/></g><g transform="translate(-182,-94) scale(1,1)"><path fill="none" stroke="#000000" d="M 608 267.5 C 608 256.7304464 630.6096176 248 658.5 248 C 686.3903824 248 709 256.7304464 709 267.5 C 709 278.2695536 686.3903824 287 658.5 287 C 630.6096176 287 608 278.2695536 608 267.5 Z" stroke-miterlimit="10"/></g><g transform="translate(-182,-94) scale(1,1)"><g><path fill="none" stroke="none"/><text fill="#000000" stroke="none" font-family="Arial" font-size="13px" font-style="normal" font-weight="bold" text-decoration="none" x="645.5" y="274.5">充值</text></g></g><g transform="translate(-182,-94) scale(1,1)"><path fill="#C0C0C0" stroke="none" d="M 199 523 C 199 511.954304 222.505048 503 251.5 503 C 280.494952 503 304 511.954304 304 523 C 304 534.045696 280.494952 543 251.5 543 C 222.505048 543 199 534.045696 199 523 Z" opacity="0.2"/></g><g transform="translate(-182,-94) scale(1,1)"><path fill="#ffffff" stroke="none" d="M 192 516 C 192 504.954304 215.505048 496 244.5 496 C 273.494952 496 297 504.954304 297 516 C 297 527.045696 273.494952 536 244.5 536 C 215.505048 536 192 527.045696 192 516 Z"/></g><g transform="translate(-182,-94) scale(1,1)"><path fill="none" stroke="#000000" d="M 192 516 C 192 504.954304 215.505048 496 244.5 496 C 273.494952 496 297 504.954304 297 516 C 297 527.045696 273.494952 536 244.5 536 C 215.505048 536 192 527.045696 192 516 Z" stroke-miterlimit="10"/></g><g transform="translate(-182,-94) scale(1,1)"><g><path fill="none" stroke="none"/><text fill="#000000" stroke="none" font-family="Arial" font-size="13px" font-style="normal" font-weight="bold" text-decoration="none" x="212" y="523">挂失校园卡</text></g></g><g transform="translate(-182,-94) scale(1,1)"><path fill="none" stroke="#000000" d="M 407 516 L 298 516" stroke-miterlimit="10"/></g><g transform="translate(-182,-94) scale(1,1)"><path fill="none" stroke="#000000" d="M 308.16267485762415 511.790482243984 L 298 516 L 308.16267485762415 520.209517756016" stroke-miterlimit="10"/></g><g transform="translate(-182,-94) scale(1,1)"><path fill="#C0C0C0" stroke="none" d="M 599 354.5 C 599 343.7304464 630.5639216 335 669.5 335 C 708.4360784 335 740 343.7304464 740 354.5 C 740 365.2695536 708.4360784 374 669.5 374 C 630.5639216 374 599 365.2695536 599 354.5 Z" opacity="0.2"/></g><g transform="translate(-182,-94) scale(1,1)"><path fill="#ffffff" stroke="none" d="M 592 347.5 C 592 336.7304464 623.5639216 328 662.5 328 C 701.4360784 328 733 336.7304464 733 347.5 C 733 358.2695536 701.4360784 367 662.5 367 C 623.5639216 367 592 358.2695536 592 347.5 Z"/></g><g transform="translate(-182,-94) scale(1,1)"><path fill="none" stroke="#000000" d="M 592 347.5 C 592 336.7304464 623.5639216 328 662.5 328 C 701.4360784 328 733 336.7304464 733 347.5 C 733 358.2695536 701.4360784 367 662.5 367 C 623.5639216 367 592 358.2695536 592 347.5 Z" stroke-miterlimit="10"/></g><g transform="translate(-182,-94) scale(1,1)"><g><path fill="none" stroke="none"/><text fill="#000000" stroke="none" font-family="Arial" font-size="13px" font-style="normal" font-weight="bold" text-decoration="none" x="617" y="354.5">查询持卡人信息</text></g></g><g transform="translate(-182,-94) scale(1,1)"><path fill="#C0C0C0" stroke="none" d="M 599 527 C 599 509.3268864 627.6537728 495 663 495 C 698.3462272 495 727 509.3268864 727 527 C 727 544.6731136 698.3462272 559 663 559 C 627.6537728 559 599 544.6731136 599 527 Z" opacity="0.2"/></g><g transform="translate(-182,-94) scale(1,1)"><path fill="#ffffff" stroke="none" d="M 592 520 C 592 502.3268864 620.6537728 488 656 488 C 691.3462272 488 720 502.3268864 720 520 C 720 537.6731136 691.3462272 552 656 552 C 620.6537728 552 592 537.6731136 592 520 Z"/></g><g transform="translate(-182,-94) scale(1,1)"><path fill="none" stroke="#000000" d="M 592 520 C 592 502.3268864 620.6537728 488 656 488 C 691.3462272 488 720 502.3268864 720 520 C 720 537.6731136 691.3462272 552 656 552 C 620.6537728 552 592 537.6731136 592 520 Z" stroke-miterlimit="10"/></g><g transform="translate(-182,-94) scale(1,1)"><g><path fill="none" stroke="none"/><text fill="#000000" stroke="none" font-family="Arial" font-size="13px" font-style="normal" font-weight="bold" text-decoration="none" x="630" y="527">刷卡乘车</text></g></g><g transform="translate(-182,-94) scale(1,1)"><path fill="none" stroke="#000000" d="M 489 292 L 631 203" stroke-miterlimit="10"/></g><g transform="translate(-182,-94) scale(1,1)"><path fill="none" stroke="#000000" d="M 624.6244433813829 211.96394320613467 L 631 203 L 620.1533356539081 204.830265708366" stroke-miterlimit="10"/></g><g transform="translate(-182,-94) scale(1,1)"><path fill="none" stroke="#000000" d="M 489 309 L 607 280" stroke-miterlimit="10"/></g><g transform="translate(-182,-94) scale(1,1)"><path fill="none" stroke="#000000" d="M 598.1356435707343 286.513308306455 L 607 280 L 596.1263489865587 278.3375579294646" stroke-miterlimit="10"/></g><g transform="translate(-182,-94) scale(1,1)"><path fill="none" stroke="#000000" d="M 489 326 L 591 338" stroke-miterlimit="10"/></g><g transform="translate(-182,-94) scale(1,1)"><path fill="none" stroke="#000000" d="M 580.4150880173437 340.99326549430856 L 591 338 L 581.3987786298837 332.63189528771824" stroke-miterlimit="10"/></g><g transform="translate(-182,-94) scale(1,1)"><path fill="none" stroke="#000000" d="M 489 362 L 621 487" stroke-miterlimit="10"/></g><g transform="translate(-182,-94) scale(1,1)"><path fill="none" stroke="#000000" d="M 610.7264791364223 483.0687445941998 L 621 487 L 616.5153410867202 476.9557063746851" stroke-miterlimit="10"/></g><g transform="translate(-182,-94) scale(1,1)"><path fill="none" stroke="#000000" d="M 481 517 L 591 519" stroke-miterlimit="10"/></g><g transform="translate(-182,-94) scale(1,1)"><path fill="none" stroke="#000000" d="M 580.7624804680675 523.0240767678188 L 591 519 L 580.9155285459009 514.6064324869807" stroke-miterlimit="10"/></g><g transform="translate(-182,-94) scale(1,1)"><path fill="#ffffff" stroke="none" d="M 837.82 475.2 C 837.82 465.14841664 845.735604736 457 855.5 457 C 865.264395264 457 873.18 465.14841664 873.18 475.2 C 873.18 485.25158336 865.264395264 493.4 855.5 493.4 C 845.735604736 493.4 837.82 485.25158336 837.82 475.2 Z"/></g><g transform="translate(-182,-94) scale(1,1)"><path fill="none" stroke="#000000" d="M 837.82 475.2 C 837.82 465.14841664 845.735604736 457 855.5 457 C 865.264395264 457 873.18 465.14841664 873.18 475.2 C 873.18 485.25158336 865.264395264 493.4 855.5 493.4 C 845.735604736 493.4 837.82 485.25158336 837.82 475.2 Z" stroke-miterlimit="10"/></g><g transform="translate(-182,-94) scale(1,1)"><path fill="none" stroke="#000000" d="M 855.5 493.4 L 855.5 528.6" stroke-miterlimit="10"/></g><g transform="translate(-182,-94) scale(1,1)"><path fill="none" stroke="#000000" d="M 836.78 506.6 L 874.22 506.6" stroke-miterlimit="10"/></g><g transform="translate(-182,-94) scale(1,1)"><path fill="none" stroke="#000000" d="M 855.5 528.6 L 829.5 565" stroke-miterlimit="10"/></g><g transform="translate(-182,-94) scale(1,1)"><path fill="none" stroke="#000000" d="M 855.5 528.6 L 881.5 565" stroke-miterlimit="10"/></g><g transform="translate(-182,-94) scale(1,1)"><g><path fill="none" stroke="none"/><text fill="#000000" stroke="none" font-family="Arial" font-size="13px" font-style="normal" font-weight="bold" text-decoration="none" x="836" y="585.5">公交车</text></g></g><g transform="translate(-182,-94) scale(1,1)"><path fill="none" stroke="#000000" d="M 721 521 L 823 523" stroke-miterlimit="10"/></g><g transform="translate(-182,-94) scale(1,1)"><path fill="none" stroke="#000000" d="M 812.7567544868664 527.0094789384244 L 823 523 L 812.9218018899201 518.592061382689" stroke-miterlimit="10"/></g><g transform="translate(-182,-94) scale(1,1)"><path fill="#ffffff" stroke="none" d="M 344.40935031960225 113.68 C 344.40935031960225 108.886167936 348.29519264454774 105 353.088623046875 105 C 357.88205344920226 105 361.76789577414775 108.886167936 361.76789577414775 113.68 C 361.76789577414775 118.473832064 357.88205344920226 122.36 353.088623046875 122.36 C 348.29519264454774 122.36 344.40935031960225 118.473832064 344.40935031960225 113.68 Z"/></g><g transform="translate(-182,-94) scale(1,1)"><path fill="none" stroke="#000000" d="M 344.40935031960225 113.68 C 344.40935031960225 108.886167936 348.29519264454774 105 353.088623046875 105 C 357.88205344920226 105 361.76789577414775 108.886167936 361.76789577414775 113.68 C 361.76789577414775 118.473832064 357.88205344920226 122.36 353.088623046875 122.36 C 348.29519264454774 122.36 344.40935031960225 118.473832064 344.40935031960225 113.68 Z" stroke-miterlimit="10"/></g><g transform="translate(-182,-94) scale(1,1)"><path fill="none" stroke="#000000" d="M 353.088623046875 122.36 L 353.088623046875 139.64" stroke-miterlimit="10"/></g><g transform="translate(-182,-94) scale(1,1)"><path fill="none" stroke="#000000" d="M 343.89880486505683 128.84 L 362.27844122869317 128.84" stroke-miterlimit="10"/></g><g transform="translate(-182,-94) scale(1,1)"><path fill="none" stroke="#000000" d="M 353.088623046875 139.64 L 340.32498668323865 157" stroke-miterlimit="10"/></g><g transform="translate(-182,-94) scale(1,1)"><path fill="none" stroke="#000000" d="M 353.088623046875 139.64 L 365.85225941051135 157" stroke-miterlimit="10"/></g><g transform="translate(-182,-94) scale(1,1)"><g><path fill="none" stroke="none"/><text fill="#000000" stroke="none" font-family="Arial" font-size="13px" font-style="normal" font-weight="bold" text-decoration="none" x="333.588623046875" y="177.5">学生卡</text></g></g><g transform="translate(-182,-94) scale(1,1)"><path fill="#ffffff" stroke="none" d="M 431.32072727272725 113.68 C 431.32072727272725 108.886167936 435.20656959767274 105 440 105 C 444.79343040232726 105 448.67927272727275 108.886167936 448.67927272727275 113.68 C 448.67927272727275 118.473832064 444.79343040232726 122.36 440 122.36 C 435.20656959767274 122.36 431.32072727272725 118.473832064 431.32072727272725 113.68 Z"/></g><g transform="translate(-182,-94) scale(1,1)"><path fill="none" stroke="#000000" d="M 431.32072727272725 113.68 C 431.32072727272725 108.886167936 435.20656959767274 105 440 105 C 444.79343040232726 105 448.67927272727275 108.886167936 448.67927272727275 113.68 C 448.67927272727275 118.473832064 444.79343040232726 122.36 440 122.36 C 435.20656959767274 122.36 431.32072727272725 118.473832064 431.32072727272725 113.68 Z" stroke-miterlimit="10"/></g><g transform="translate(-182,-94) scale(1,1)"><path fill="none" stroke="#000000" d="M 440 122.36 L 440 139.64" stroke-miterlimit="10"/></g><g transform="translate(-182,-94) scale(1,1)"><path fill="none" stroke="#000000" d="M 430.81018181818183 128.84 L 449.18981818181817 128.84" stroke-miterlimit="10"/></g><g transform="translate(-182,-94) scale(1,1)"><path fill="none" stroke="#000000" d="M 440 139.64 L 427.23636363636365 157" stroke-miterlimit="10"/></g><g transform="translate(-182,-94) scale(1,1)"><path fill="none" stroke="#000000" d="M 440 139.64 L 452.76363636363635 157" stroke-miterlimit="10"/></g><g transform="translate(-182,-94) scale(1,1)"><g><path fill="none" stroke="none"/><text fill="#000000" stroke="none" font-family="Arial" font-size="13px" font-style="normal" font-weight="bold" text-decoration="none" x="420.5" y="177.5">教师卡</text></g></g><g transform="translate(-182,-94) scale(1,1)"><path fill="#ffffff" stroke="none" d="M 512.4093503196023 113.68 C 512.4093503196023 108.886167936 516.2951926445477 105 521.088623046875 105 C 525.8820534492023 105 529.7678957741477 108.886167936 529.7678957741477 113.68 C 529.7678957741477 118.473832064 525.8820534492023 122.36 521.088623046875 122.36 C 516.2951926445477 122.36 512.4093503196023 118.473832064 512.4093503196023 113.68 Z"/></g><g transform="translate(-182,-94) scale(1,1)"><path fill="none" stroke="#000000" d="M 512.4093503196023 113.68 C 512.4093503196023 108.886167936 516.2951926445477 105 521.088623046875 105 C 525.8820534492023 105 529.7678957741477 108.886167936 529.7678957741477 113.68 C 529.7678957741477 118.473832064 525.8820534492023 122.36 521.088623046875 122.36 C 516.2951926445477 122.36 512.4093503196023 118.473832064 512.4093503196023 113.68 Z" stroke-miterlimit="10"/></g><g transform="translate(-182,-94) scale(1,1)"><path fill="none" stroke="#000000" d="M 521.088623046875 122.36 L 521.088623046875 139.64" stroke-miterlimit="10"/></g><g transform="translate(-182,-94) scale(1,1)"><path fill="none" stroke="#000000" d="M 511.89880486505683 128.84 L 530.2784412286932 128.84" stroke-miterlimit="10"/></g><g transform="translate(-182,-94) scale(1,1)"><path fill="none" stroke="#000000" d="M 521.088623046875 139.64 L 508.32498668323865 157" stroke-miterlimit="10"/></g><g transform="translate(-182,-94) scale(1,1)"><path fill="none" stroke="#000000" d="M 521.088623046875 139.64 L 533.8522594105114 157" stroke-miterlimit="10"/></g><g transform="translate(-182,-94) scale(1,1)"><g><path fill="none" stroke="none"/><text fill="#000000" stroke="none" font-family="Arial" font-size="13px" font-style="normal" font-weight="bold" text-decoration="none" x="501.588623046875" y="177.5">限制卡</text></g></g><g transform="translate(-182,-94) scale(1,1)"><path fill="none" stroke="#000000" d="M 374 184 L 406 247" stroke-miterlimit="10"/></g><g transform="translate(-182,-94) scale(1,1)"><path fill="#FFFFFF" stroke="none" d="M 389.2891170641542 232.69103807034008 L 406 247 L 404.3015853686515 225.06565734424618"/></g><g transform="translate(-182,-94) scale(1,1)"><path fill="none" stroke="#000000" d="M 389.2891170641542 232.69103807034008 L 406 247 L 404.3015853686515 225.06565734424618 L 389.2891170641542 232.69103807034008" stroke-miterlimit="10"/></g><g transform="translate(-182,-94) scale(1,1)"><path fill="none" stroke="#000000" d="M 441 184 L 442 247" stroke-miterlimit="10"/></g><g transform="translate(-182,-94) scale(1,1)"><path fill="#FFFFFF" stroke="none" d="M 433.25944092340177 226.8108289662875 L 442 247 L 450.0953911500489 226.54359166110262"/></g><g transform="translate(-182,-94) scale(1,1)"><path fill="none" stroke="#000000" d="M 433.25944092340177 226.8108289662875 L 442 247 L 450.0953911500489 226.54359166110262 L 433.25944092340177 226.8108289662875" stroke-miterlimit="10"/></g><g transform="translate(-182,-94) scale(1,1)"><path fill="none" stroke="#000000" d="M 503 184 L 476 247" stroke-miterlimit="10"/></g><g transform="translate(-182,-94) scale(1,1)"><path fill="#FFFFFF" stroke="none" d="M 476.2682328547772 225.00163526223784 L 476 247 L 491.7448621516366 231.63447638946332"/></g><g transform="translate(-182,-94) scale(1,1)"><path fill="none" stroke="#000000" d="M 476.2682328547772 225.00163526223784 L 476 247 L 491.7448621516366 231.63447638946332 L 476.2682328547772 225.00163526223784" stroke-miterlimit="10"/></g><g transform="translate(-182,-94) scale(1,1)"><path fill="#C0C0C0" stroke="none" d="M 407 696 C 407 686.6111584 434.5344848 679 468.5 679 C 502.4655152 679 530 686.6111584 530 696 C 530 705.3888416 502.4655152 713 468.5 713 C 434.5344848 713 407 705.3888416 407 696 Z" opacity="0.2"/></g><g transform="translate(-182,-94) scale(1,1)"><path fill="#ffffff" stroke="none" d="M 400 689 C 400 679.6111584 427.5344848 672 461.5 672 C 495.4655152 672 523 679.6111584 523 689 C 523 698.3888416 495.4655152 706 461.5 706 C 427.5344848 706 400 698.3888416 400 689 Z"/></g><g transform="translate(-182,-94) scale(1,1)"><path fill="none" stroke="#000000" d="M 400 689 C 400 679.6111584 427.5344848 672 461.5 672 C 495.4655152 672 523 679.6111584 523 689 C 523 698.3888416 495.4655152 706 461.5 706 C 427.5344848 706 400 698.3888416 400 689 Z" stroke-miterlimit="10"/></g><g transform="translate(-182,-94) scale(1,1)"><g><path fill="none" stroke="none"/><text fill="#000000" stroke="none" font-family="Arial" font-size="13px" font-style="normal" font-weight="bold" text-decoration="none" x="422.5" y="696">查询能否乘坐</text></g></g><g transform="translate(-182,-94) scale(1,1)"><path fill="#C0C0C0" stroke="none" d="M 687 736 C 687 726.6111584 710.505048 719 739.5 719 C 768.494952 719 792 726.6111584 792 736 C 792 745.3888416 768.494952 753 739.5 753 C 710.505048 753 687 745.3888416 687 736 Z" opacity="0.2"/></g><g transform="translate(-182,-94) scale(1,1)"><path fill="#ffffff" stroke="none" d="M 680 729 C 680 719.6111584 703.505048 712 732.5 712 C 761.494952 712 785 719.6111584 785 729 C 785 738.3888416 761.494952 746 732.5 746 C 703.505048 746 680 738.3888416 680 729 Z"/></g><g transform="translate(-182,-94) scale(1,1)"><path fill="none" stroke="#000000" d="M 680 729 C 680 719.6111584 703.505048 712 732.5 712 C 761.494952 712 785 719.6111584 785 729 C 785 738.3888416 761.494952 746 732.5 746 C 703.505048 746 680 738.3888416 680 729 Z" stroke-miterlimit="10"/></g><g transform="translate(-182,-94) scale(1,1)"><g><path fill="none" stroke="none"/><text fill="#000000" stroke="none" font-family="Arial" font-size="13px" font-style="normal" font-weight="bold" text-decoration="none" x="719.5" y="736">扣费</text></g></g><g transform="translate(-182,-94) scale(1,1)"><path fill="#C0C0C0" stroke="none" d="M 775 688 C 775 678.6111584 802.5344848 671 836.5 671 C 870.4655152 671 898 678.6111584 898 688 C 898 697.3888416 870.4655152 705 836.5 705 C 802.5344848 705 775 697.3888416 775 688 Z" opacity="0.2"/></g><g transform="translate(-182,-94) scale(1,1)"><path fill="#ffffff" stroke="none" d="M 768 681 C 768 671.6111584 795.5344848 664 829.5 664 C 863.4655152 664 891 671.6111584 891 681 C 891 690.3888416 863.4655152 698 829.5 698 C 795.5344848 698 768 690.3888416 768 681 Z"/></g><g transform="translate(-182,-94) scale(1,1)"><path fill="none" stroke="#000000" d="M 768 681 C 768 671.6111584 795.5344848 664 829.5 664 C 863.4655152 664 891 671.6111584 891 681 C 891 690.3888416 863.4655152 698 829.5 698 C 795.5344848 698 768 690.3888416 768 681 Z" stroke-miterlimit="10"/></g><g transform="translate(-182,-94) scale(1,1)"><g><path fill="none" stroke="none"/><text fill="#000000" stroke="none" font-family="Arial" font-size="13px" font-style="normal" font-weight="bold" text-decoration="none" x="790.5" y="688">扣除免费次数</text></g></g><g transform="translate(-182,-94) scale(1,1)"><path fill="#C0C0C0" stroke="none" d="M 567 736 C 567 726.6111584 589.6096176 719 617.5 719 C 645.3903824 719 668 726.6111584 668 736 C 668 745.3888416 645.3903824 753 617.5 753 C 589.6096176 753 567 745.3888416 567 736 Z" opacity="0.2"/></g><g transform="translate(-182,-94) scale(1,1)"><path fill="#ffffff" stroke="none" d="M 560 729 C 560 719.6111584 582.6096176 712 610.5 712 C 638.3903824 712 661 719.6111584 661 729 C 661 738.3888416 638.3903824 746 610.5 746 C 582.6096176 746 560 738.3888416 560 729 Z"/></g><g transform="translate(-182,-94) scale(1,1)"><path fill="none" stroke="#000000" d="M 560 729 C 560 719.6111584 582.6096176 712 610.5 712 C 638.3903824 712 661 719.6111584 661 729 C 661 738.3888416 638.3903824 746 610.5 746 C 582.6096176 746 560 738.3888416 560 729 Z" stroke-miterlimit="10"/></g><g transform="translate(-182,-94) scale(1,1)"><g><path fill="none" stroke="none"/><text fill="#000000" stroke="none" font-family="Arial" font-size="13px" font-style="normal" font-weight="bold" text-decoration="none" x="584.5" y="736">欠费提醒</text></g></g><g transform="translate(-182,-94) scale(1,1)"><path fill="none" stroke="#000000" d="M 614 711 L 649 553" stroke-miterlimit="10" stroke-dasharray="3"/></g><g transform="translate(-182,-94) scale(1,1)"><path fill="none" stroke="#000000" d="M 650.9119439138159 563.8325652765365 L 649 553 L 642.6921681420228 562.0117288713924" stroke-miterlimit="10"/></g><g transform="translate(-182,-94) scale(1,1)"><g><path fill="none" stroke="none"/><text fill="#000000" stroke="none" font-family="Arial" font-size="13px" font-style="normal" font-weight="normal" text-decoration="none" x="599.5" y="630.5">«extend»</text></g></g><g transform="translate(-182,-94) scale(1,1)"><path fill="none" stroke="#000000" d="M 725 711 L 668 553" stroke-miterlimit="10" stroke-dasharray="3"/></g><g transform="translate(-182,-94) scale(1,1)"><path fill="none" stroke="#000000" d="M 675.408445442642 561.1311091570213 L 668 553 L 667.4889995870449 563.9881244340406" stroke-miterlimit="10"/></g><g transform="translate(-182,-94) scale(1,1)"><g><path fill="none" stroke="none"/><text fill="#000000" stroke="none" font-family="Arial" font-size="13px" font-style="normal" font-weight="normal" text-decoration="none" x="655.5" y="619.5">«extend»</text></g></g><g transform="translate(-182,-94) scale(1,1)"><path fill="none" stroke="#000000" d="M 810 663 L 691 553" stroke-miterlimit="10" stroke-dasharray="3"/></g><g transform="translate(-182,-94) scale(1,1)"><path fill="none" stroke="#000000" d="M 701.3201472819205 556.8071721893641 L 691 553 L 695.6053688536457 562.9895233981341" stroke-miterlimit="10"/></g><g transform="translate(-182,-94) scale(1,1)"><g><path fill="none" stroke="none"/><text fill="#000000" stroke="none" font-family="Arial" font-size="13px" font-style="normal" font-weight="normal" text-decoration="none" x="727.5" y="612.5">«extend»</text></g></g><g transform="translate(-182,-94) scale(1,1)"><path fill="#C0C0C0" stroke="none" d="M 1007 472 C 1007 462.6111584 1029.6096176 455 1057.5 455 C 1085.3903824 455 1108 462.6111584 1108 472 C 1108 481.3888416 1085.3903824 489 1057.5 489 C 1029.6096176 489 1007 481.3888416 1007 472 Z" opacity="0.2"/></g><g transform="translate(-182,-94) scale(1,1)"><path fill="#ffffff" stroke="none" d="M 1000 465 C 1000 455.6111584 1022.6096176 448 1050.5 448 C 1078.3903824 448 1101 455.6111584 1101 465 C 1101 474.3888416 1078.3903824 482 1050.5 482 C 1022.6096176 482 1000 474.3888416 1000 465 Z"/></g><g transform="translate(-182,-94) scale(1,1)"><path fill="none" stroke="#000000" d="M 1000 465 C 1000 455.6111584 1022.6096176 448 1050.5 448 C 1078.3903824 448 1101 455.6111584 1101 465 C 1101 474.3888416 1078.3903824 482 1050.5 482 C 1022.6096176 482 1000 474.3888416 1000 465 Z" stroke-miterlimit="10"/></g><g transform="translate(-182,-94) scale(1,1)"><g><path fill="none" stroke="none"/><text fill="#000000" stroke="none" font-family="Arial" font-size="13px" font-style="normal" font-weight="bold" text-decoration="none" x="1037.5" y="472">发车</text></g></g><g transform="translate(-182,-94) scale(1,1)"><path fill="#C0C0C0" stroke="none" d="M 1047 528 C 1047 518.6111584 1069.6096176 511 1097.5 511 C 1125.3903824 511 1148 518.6111584 1148 528 C 1148 537.3888416 1125.3903824 545 1097.5 545 C 1069.6096176 545 1047 537.3888416 1047 528 Z" opacity="0.2"/></g><g transform="translate(-182,-94) scale(1,1)"><path fill="#ffffff" stroke="none" d="M 1040 521 C 1040 511.6111584 1062.6096176 504 1090.5 504 C 1118.3903824 504 1141 511.6111584 1141 521 C 1141 530.3888416 1118.3903824 538 1090.5 538 C 1062.6096176 538 1040 530.3888416 1040 521 Z"/></g><g transform="translate(-182,-94) scale(1,1)"><path fill="none" stroke="#000000" d="M 1040 521 C 1040 511.6111584 1062.6096176 504 1090.5 504 C 1118.3903824 504 1141 511.6111584 1141 521 C 1141 530.3888416 1118.3903824 538 1090.5 538 C 1062.6096176 538 1040 530.3888416 1040 521 Z" stroke-miterlimit="10"/></g><g transform="translate(-182,-94) scale(1,1)"><g><path fill="none" stroke="none"/><text fill="#000000" stroke="none" font-family="Arial" font-size="13px" font-style="normal" font-weight="bold" text-decoration="none" x="1077.5" y="528">到站</text></g></g><g transform="translate(-182,-94) scale(1,1)"><path fill="#C0C0C0" stroke="none" d="M 1007 576 C 1007 566.6111584 1029.6096176 559 1057.5 559 C 1085.3903824 559 1108 566.6111584 1108 576 C 1108 585.3888416 1085.3903824 593 1057.5 593 C 1029.6096176 593 1007 585.3888416 1007 576 Z" opacity="0.2"/></g><g transform="translate(-182,-94) scale(1,1)"><path fill="#ffffff" stroke="none" d="M 1000 569 C 1000 559.6111584 1022.6096176 552 1050.5 552 C 1078.3903824 552 1101 559.6111584 1101 569 C 1101 578.3888416 1078.3903824 586 1050.5 586 C 1022.6096176 586 1000 578.3888416 1000 569 Z"/></g><g transform="translate(-182,-94) scale(1,1)"><path fill="none" stroke="#000000" d="M 1000 569 C 1000 559.6111584 1022.6096176 552 1050.5 552 C 1078.3903824 552 1101 559.6111584 1101 569 C 1101 578.3888416 1078.3903824 586 1050.5 586 C 1022.6096176 586 1000 578.3888416 1000 569 Z" stroke-miterlimit="10"/></g><g transform="translate(-182,-94) scale(1,1)"><g><path fill="none" stroke="none"/><text fill="#000000" stroke="none" font-family="Arial" font-size="13px" font-style="normal" font-weight="bold" text-decoration="none" x="1024.5" y="576">接收乘客</text></g></g><g transform="translate(-182,-94) scale(1,1)"><path fill="#C0C0C0" stroke="none" d="M 975 632 C 975 622.6111584 997.6096176 615 1025.5 615 C 1053.3903824 615 1076 622.6111584 1076 632 C 1076 641.3888416 1053.3903824 649 1025.5 649 C 997.6096176 649 975 641.3888416 975 632 Z" opacity="0.2"/></g><g transform="translate(-182,-94) scale(1,1)"><path fill="#ffffff" stroke="none" d="M 968 625 C 968 615.6111584 990.6096176 608 1018.5 608 C 1046.3903824 608 1069 615.6111584 1069 625 C 1069 634.3888416 1046.3903824 642 1018.5 642 C 990.6096176 642 968 634.3888416 968 625 Z"/></g><g transform="translate(-182,-94) scale(1,1)"><path fill="none" stroke="#000000" d="M 968 625 C 968 615.6111584 990.6096176 608 1018.5 608 C 1046.3903824 608 1069 615.6111584 1069 625 C 1069 634.3888416 1046.3903824 642 1018.5 642 C 990.6096176 642 968 634.3888416 968 625 Z" stroke-miterlimit="10"/></g><g transform="translate(-182,-94) scale(1,1)"><g><path fill="none" stroke="none"/><text fill="#000000" stroke="none" font-family="Arial" font-size="13px" font-style="normal" font-weight="bold" text-decoration="none" x="1005.5" y="632">下班</text></g></g><g transform="translate(-182,-94) scale(1,1)"><path fill="#C0C0C0" stroke="none" d="M 967 416 C 967 406.6111584 989.6096176 399 1017.5 399 C 1045.3903824 399 1068 406.6111584 1068 416 C 1068 425.3888416 1045.3903824 433 1017.5 433 C 989.6096176 433 967 425.3888416 967 416 Z" opacity="0.2"/></g><g transform="translate(-182,-94) scale(1,1)"><path fill="#ffffff" stroke="none" d="M 960 409 C 960 399.6111584 982.6096176 392 1010.5 392 C 1038.3903824 392 1061 399.6111584 1061 409 C 1061 418.3888416 1038.3903824 426 1010.5 426 C 982.6096176 426 960 418.3888416 960 409 Z"/></g><g transform="translate(-182,-94) scale(1,1)"><path fill="none" stroke="#000000" d="M 960 409 C 960 399.6111584 982.6096176 392 1010.5 392 C 1038.3903824 392 1061 399.6111584 1061 409 C 1061 418.3888416 1038.3903824 426 1010.5 426 C 982.6096176 426 960 418.3888416 960 409 Z" stroke-miterlimit="10"/></g><g transform="translate(-182,-94) scale(1,1)"><g><path fill="none" stroke="none"/><text fill="#000000" stroke="none" font-family="Arial" font-size="13px" font-style="normal" font-weight="bold" text-decoration="none" x="997.5" y="416">上班</text></g></g><g transform="translate(-182,-94) scale(1,1)"><path fill="none" stroke="#000000" d="M 888 499 L 986 427" stroke-miterlimit="10"/></g><g transform="translate(-182,-94) scale(1,1)"><path fill="none" stroke="#000000" d="M 980.3024414235928 436.40945408981884 L 986 427 L 975.3177289002405 429.6247064885893" stroke-miterlimit="10"/></g><g transform="translate(-182,-94) scale(1,1)"><path fill="none" stroke="#000000" d="M 888 513 L 999 480" stroke-miterlimit="10"/></g><g transform="translate(-182,-94) scale(1,1)"><path fill="none" stroke="#000000" d="M 990.4582940753561 486.9310359901607 L 999 480 L 988.0591192684923 478.8610843670736" stroke-miterlimit="10"/></g><g transform="translate(-182,-94) scale(1,1)"><path fill="none" stroke="#000000" d="M 888 523 L 1039 521" stroke-miterlimit="10"/></g><g transform="translate(-182,-94) scale(1,1)"><path fill="none" stroke="#000000" d="M 1028.893966760832 525.3437417244618 L 1039 521 L 1028.7824661365978 516.9254445947776" stroke-miterlimit="10"/></g><g transform="translate(-182,-94) scale(1,1)"><path fill="none" stroke="#000000" d="M 888 531 L 999 557" stroke-miterlimit="10"/></g><g transform="translate(-182,-94) scale(1,1)"><path fill="none" stroke="#000000" d="M 988.1451161172924 558.7808694205175 L 999 557 L 990.0651731538892 550.5837028412006" stroke-miterlimit="10"/></g><g transform="translate(-182,-94) scale(1,1)"><path fill="none" stroke="#000000" d="M 888 544 L 989 607" stroke-miterlimit="10"/></g><g transform="translate(-182,-94) scale(1,1)"><path fill="none" stroke="#000000" d="M 978.1494157293247 605.1931184363738 L 989 607 L 982.6051364888104 598.0498200759283" stroke-miterlimit="10"/></g><g transform="translate(-182,-94) scale(1,1)"><path fill="none" stroke="#000000" d="M 618 553 L 482 671" stroke-miterlimit="10" stroke-dasharray="3"/></g><g transform="translate(-182,-94) scale(1,1)"><path fill="none" stroke="#000000" d="M 486.91737522255664 661.1603139826219 L 482 671 L 492.434818073143 667.519400657874" stroke-miterlimit="10"/></g><g transform="translate(-182,-94) scale(1,1)"><g><path fill="none" stroke="none"/><text fill="#000000" stroke="none" font-family="Arial" font-size="13px" font-style="normal" font-weight="normal" text-decoration="none" x="527.5" y="604.5">«include»</text></g></g><g transform="translate(-182,-94) scale(1,1)"><path fill="#C0C0C0" stroke="none" d="M 1031 720 C 1031 710.6111584 1054.505048 703 1083.5 703 C 1112.494952 703 1136 710.6111584 1136 720 C 1136 729.3888416 1112.494952 737 1083.5 737 C 1054.505048 737 1031 729.3888416 1031 720 Z" opacity="0.2"/></g><g transform="translate(-182,-94) scale(1,1)"><path fill="#ffffff" stroke="none" d="M 1024 713 C 1024 703.6111584 1047.505048 696 1076.5 696 C 1105.494952 696 1129 703.6111584 1129 713 C 1129 722.3888416 1105.494952 730 1076.5 730 C 1047.505048 730 1024 722.3888416 1024 713 Z"/></g><g transform="translate(-182,-94) scale(1,1)"><path fill="none" stroke="#000000" d="M 1024 713 C 1024 703.6111584 1047.505048 696 1076.5 696 C 1105.494952 696 1129 703.6111584 1129 713 C 1129 722.3888416 1105.494952 730 1076.5 730 C 1047.505048 730 1024 722.3888416 1024 713 Z" stroke-miterlimit="10"/></g><g transform="translate(-182,-94) scale(1,1)"><g><path fill="none" stroke="none"/><text fill="#000000" stroke="none" font-family="Arial" font-size="13px" font-style="normal" font-weight="bold" text-decoration="none" x="1044" y="720">计算载客率</text></g></g><g transform="translate(-182,-94) scale(1,1)"><path fill="#C0C0C0" stroke="none" d="M 903 720 C 903 710.6111584 926.505048 703 955.5 703 C 984.494952 703 1008 710.6111584 1008 720 C 1008 729.3888416 984.494952 737 955.5 737 C 926.505048 737 903 729.3888416 903 720 Z" opacity="0.2"/></g><g transform="translate(-182,-94) scale(1,1)"><path fill="#ffffff" stroke="none" d="M 896 713 C 896 703.6111584 919.505048 696 948.5 696 C 977.494952 696 1001 703.6111584 1001 713 C 1001 722.3888416 977.494952 730 948.5 730 C 919.505048 730 896 722.3888416 896 713 Z"/></g><g transform="translate(-182,-94) scale(1,1)"><path fill="none" stroke="#000000" d="M 896 713 C 896 703.6111584 919.505048 696 948.5 696 C 977.494952 696 1001 703.6111584 1001 713 C 1001 722.3888416 977.494952 730 948.5 730 C 919.505048 730 896 722.3888416 896 713 Z" stroke-miterlimit="10"/></g><g transform="translate(-182,-94) scale(1,1)"><g><path fill="none" stroke="none"/><text fill="#000000" stroke="none" font-family="Arial" font-size="13px" font-style="normal" font-weight="bold" text-decoration="none" x="916" y="720">计算准点率</text></g></g><g transform="translate(-182,-94) scale(1,1)"><path fill="none" stroke="#000000" d="M 962 695 L 1004 643" stroke-miterlimit="10" stroke-dasharray="3"/></g><g transform="translate(-182,-94) scale(1,1)"><path fill="none" stroke="#000000" d="M 1000.889171490892 653.5509594818159 L 1004 643 L 994.3396570684847 648.2609670637178" stroke-miterlimit="10"/></g><g transform="translate(-182,-94) scale(1,1)"><g><path fill="none" stroke="none"/><text fill="#000000" stroke="none" font-family="Arial" font-size="13px" font-style="normal" font-weight="normal" text-decoration="none" x="951.5" y="676.5">«extend»</text></g></g><g transform="translate(-182,-94) scale(1,1)"><path fill="none" stroke="#000000" d="M 1064 695 L 1030 643" stroke-miterlimit="10" stroke-dasharray="3"/></g><g transform="translate(-182,-94) scale(1,1)"><path fill="none" stroke="#000000" d="M 1039.0847557933027 649.2021941420802 L 1030 643 L 1032.0382788907677 653.8095059629685" stroke-miterlimit="10"/></g><g transform="translate(-182,-94) scale(1,1)"><g><path fill="none" stroke="none"/><text fill="#000000" stroke="none" font-family="Arial" font-size="13px" font-style="normal" font-weight="normal" text-decoration="none" x="1031.5" y="675.5">«extend»</text></g></g></g></svg>